<?xml version="1.0" encoding="UTF-8" standalone="no"?>
<!DOCTYPE svg PUBLIC "-//W3C//DTD SVG 1.1//EN" "http://www.w3.org/Graphics/SVG/1.1/DTD/svg11.dtd">
<svg width="100%" height="100%" viewBox="0 0 200 60" version="1.1" xmlns="http://www.w3.org/2000/svg" xmlns:xlink="http://www.w3.org/1999/xlink" xml:space="preserve" xmlns:serif="http://www.serif.com/" style="fill-rule:evenodd;clip-rule:evenodd;stroke-linejoin:round;stroke-miterlimit:1.41421;">
    <rect id="Artboard1" x="0" y="0" width="200" height="60" style="fill:none;"/>
    <g id="Artboard11" serif:id="Artboard1">
        <g transform="matrix(1.02747,0,0,1.05292,-5.49356,-3.17549)">
            <path d="M185.59,3.017L185.778,3.021L185.965,3.026L186.152,3.034L186.338,3.045L186.524,3.057L186.708,3.072L186.893,3.089L187.076,3.109L187.259,3.13L187.442,3.154L187.623,3.18L187.804,3.208L187.984,3.239L188.163,3.271L188.342,3.306L188.519,3.342L188.696,3.381L188.872,3.422L189.048,3.465L189.222,3.51L189.396,3.557L189.568,3.606L189.74,3.657L189.911,3.71L190.081,3.765L190.25,3.822L190.418,3.881L190.586,3.942L190.752,4.005L190.917,4.069L191.081,4.136L191.245,4.205L191.407,4.275L191.568,4.347L191.728,4.422L191.887,4.498L192.045,4.575L192.202,4.655L192.357,4.736L192.512,4.82L192.665,4.904L192.818,4.991L192.969,5.08L193.119,5.17L193.267,5.262L193.415,5.355L193.561,5.45L193.706,5.547L193.85,5.646L193.992,5.746L194.133,5.848L194.273,5.951L194.412,6.056L194.549,6.163L194.685,6.271L194.82,6.38L194.953,6.492L195.085,6.604L195.215,6.719L195.344,6.834L195.471,6.952L195.597,7.07L195.722,7.19L195.845,7.312L195.967,7.435L196.087,7.559L196.206,7.685L196.323,7.812L196.438,7.941L196.552,8.071L196.665,8.202L196.775,8.335L196.885,8.469L196.992,8.604L197.098,8.741L197.202,8.878L197.305,9.017L197.406,9.158L197.505,9.299L197.603,9.442L197.699,9.586L197.793,9.731L197.885,9.877L197.976,10.025L198.065,10.173L198.152,10.323L198.237,10.474L198.32,10.626L198.402,10.779L198.482,10.933L198.559,11.088L198.635,11.244L198.71,11.401L198.782,11.56L198.852,11.719L198.92,11.879L198.987,12.04L199.051,12.203L199.114,12.366L199.174,12.53L199.232,12.695L199.289,12.861L199.343,13.028L199.396,13.195L199.446,13.364L199.494,13.533L199.54,13.703L199.584,13.874L199.626,14.046L199.666,14.219L199.703,14.392L199.739,14.567L199.772,14.741L199.803,14.917L199.832,15.094L199.858,15.271L199.883,15.449L199.905,15.627L199.925,15.806L199.942,15.986L199.957,16.166L199.97,16.348L199.981,16.529L199.989,16.712L199.995,16.894L199.999,17.078L200,17.262L200,45.754L199.999,45.938L199.995,46.121L199.989,46.304L199.981,46.487L199.97,46.668L199.957,46.849L199.942,47.03L199.925,47.21L199.905,47.389L199.883,47.567L199.858,47.745L199.832,47.922L199.803,48.099L199.772,48.274L199.739,48.449L199.703,48.624L199.666,48.797L199.626,48.97L199.584,49.141L199.54,49.313L199.494,49.483L199.446,49.652L199.396,49.821L199.343,49.988L199.289,50.155L199.232,50.321L199.174,50.486L199.114,50.65L199.051,50.813L198.987,50.975L198.92,51.137L198.852,51.297L198.782,51.456L198.71,51.614L198.635,51.772L198.559,51.928L198.482,52.083L198.402,52.237L198.32,52.39L198.237,52.542L198.152,52.693L198.065,52.843L197.976,52.991L197.885,53.139L197.793,53.285L197.699,53.43L197.603,53.574L197.505,53.717L197.406,53.858L197.305,53.999L197.202,54.138L197.098,54.275L196.992,54.412L196.885,54.547L196.775,54.681L196.665,54.814L196.552,54.945L196.438,55.075L196.323,55.203L196.206,55.331L196.087,55.456L195.967,55.581L195.845,55.704L195.722,55.825L195.597,55.946L195.471,56.064L195.344,56.182L195.215,56.297L195.085,56.412L194.953,56.524L194.82,56.636L194.685,56.745L194.549,56.853L194.412,56.96L194.273,57.065L194.133,57.168L193.992,57.27L193.85,57.37L193.706,57.469L193.561,57.566L193.415,57.661L193.267,57.754L193.119,57.846L192.969,57.936L192.818,58.025L192.665,58.111L192.512,58.196L192.357,58.28L192.202,58.361L192.045,58.441L191.887,58.518L191.728,58.594L191.568,58.668L191.407,58.741L191.245,58.811L191.081,58.88L190.917,58.946L190.752,59.011L190.586,59.074L190.418,59.135L190.25,59.194L190.081,59.251L189.911,59.306L189.74,59.359L189.568,59.41L189.396,59.459L189.222,59.506L189.048,59.551L188.872,59.594L188.696,59.635L188.519,59.674L188.342,59.71L188.163,59.745L187.984,59.777L187.804,59.808L187.623,59.836L187.442,59.862L187.259,59.885L187.076,59.907L186.893,59.926L186.708,59.944L186.524,59.958L186.338,59.971L186.152,59.981L185.965,59.99L185.778,59.995L185.59,59.999L185.401,60L19.946,60L19.757,59.999L19.569,59.995L19.382,59.99L19.195,59.981L19.009,59.971L18.823,59.958L18.638,59.944L18.454,59.926L18.27,59.907L18.087,59.885L17.905,59.862L17.724,59.836L17.543,59.808L17.363,59.777L17.184,59.745L17.005,59.71L16.827,59.674L16.65,59.635L16.474,59.594L16.299,59.551L16.125,59.506L15.951,59.459L15.778,59.41L15.606,59.359L15.435,59.306L15.265,59.251L15.096,59.194L14.928,59.135L14.761,59.074L14.595,59.011L14.43,58.946L14.265,58.88L14.102,58.811L13.94,58.741L13.779,58.668L13.619,58.594L13.46,58.518L13.302,58.441L13.145,58.361L12.989,58.28L12.835,58.196L12.681,58.111L12.529,58.025L12.378,57.936L12.228,57.846L12.079,57.754L11.932,57.661L11.786,57.566L11.641,57.469L11.497,57.37L11.354,57.27L11.213,57.168L11.073,57.065L10.935,56.96L10.798,56.853L10.662,56.745L10.527,56.636L10.394,56.524L10.262,56.412L10.132,56.297L10.003,56.182L9.875,56.064L9.749,55.946L9.625,55.825L9.502,55.704L9.38,55.581L9.26,55.456L9.141,55.331L9.024,55.203L8.909,55.075L8.795,54.945L8.682,54.814L8.571,54.681L8.462,54.547L8.355,54.412L8.249,54.275L8.144,54.138L8.042,53.999L7.941,53.858L7.841,53.717L7.744,53.574L7.648,53.43L7.554,53.285L7.462,53.139L7.371,52.991L7.282,52.843L7.195,52.693L7.11,52.542L7.026,52.39L6.945,52.237L6.865,52.083L6.787,51.928L6.711,51.772L6.637,51.614L6.565,51.456L6.495,51.297L6.426,51.137L6.36,50.975L6.296,50.813L6.233,50.65L6.173,50.486L6.114,50.321L6.058,50.155L6.004,49.988L5.951,49.821L5.901,49.652L5.853,49.483L5.807,49.313L5.763,49.141L5.721,48.97L5.681,48.797L5.644,48.624L5.608,48.449L5.575,48.274L5.544,48.099L5.515,47.922L5.488,47.745L5.464,47.567L5.442,47.389L5.422,47.21L5.405,47.03L5.389,46.849L5.376,46.668L5.366,46.487L5.357,46.304L5.351,46.121L5.348,45.938L5.347,45.754L5.347,17.262L5.348,17.078L5.351,16.894L5.357,16.712L5.366,16.529L5.376,16.348L5.389,16.166L5.405,15.986L5.422,15.806L5.442,15.627L5.464,15.449L5.488,15.271L5.515,15.094L5.544,14.917L5.575,14.741L5.608,14.567L5.644,14.392L5.681,14.219L5.721,14.046L5.763,13.874L5.807,13.703L5.853,13.533L5.901,13.364L5.951,13.195L6.004,13.028L6.058,12.861L6.114,12.695L6.173,12.53L6.233,12.366L6.296,12.203L6.36,12.04L6.426,11.879L6.495,11.719L6.565,11.56L6.637,11.401L6.711,11.244L6.787,11.088L6.865,10.933L6.945,10.779L7.026,10.626L7.11,10.474L7.195,10.323L7.282,10.173L7.371,10.025L7.462,9.877L7.554,9.731L7.648,9.586L7.744,9.442L7.841,9.299L7.941,9.158L8.042,9.017L8.144,8.878L8.249,8.741L8.355,8.604L8.462,8.469L8.571,8.335L8.682,8.202L8.795,8.071L8.909,7.941L9.024,7.812L9.141,7.685L9.26,7.559L9.38,7.435L9.502,7.312L9.625,7.19L9.749,7.07L9.875,6.952L10.003,6.834L10.132,6.719L10.262,6.604L10.394,6.492L10.527,6.38L10.662,6.271L10.798,6.163L10.935,6.056L11.073,5.951L11.213,5.848L11.354,5.746L11.497,5.646L11.641,5.547L11.786,5.45L11.932,5.355L12.079,5.262L12.228,5.17L12.378,5.08L12.529,4.991L12.681,4.904L12.835,4.82L12.989,4.736L13.145,4.655L13.302,4.575L13.46,4.498L13.619,4.422L13.779,4.347L13.94,4.275L14.102,4.205L14.265,4.136L14.43,4.069L14.595,4.005L14.761,3.942L14.928,3.881L15.096,3.822L15.265,3.765L15.435,3.71L15.606,3.657L15.778,3.606L15.951,3.557L16.125,3.51L16.299,3.465L16.474,3.422L16.65,3.381L16.827,3.342L17.005,3.306L17.184,3.271L17.363,3.239L17.543,3.208L17.724,3.18L17.905,3.154L18.087,3.13L18.27,3.109L18.454,3.089L18.638,3.072L18.823,3.057L19.009,3.045L19.195,3.034L19.382,3.026L19.569,3.021L19.757,3.017L19.946,3.016L185.401,3.016L185.59,3.017ZM19.959,6.973L19.809,6.974L19.672,6.977L19.536,6.981L19.4,6.987L19.266,6.994L19.131,7.003L18.997,7.014L18.864,7.026L18.731,7.04L18.599,7.056L18.468,7.073L18.337,7.092L18.207,7.112L18.077,7.134L17.947,7.157L17.819,7.182L17.691,7.209L17.563,7.237L17.437,7.266L17.31,7.297L17.185,7.329L17.06,7.363L16.936,7.398L16.812,7.435L16.689,7.473L16.566,7.513L16.445,7.554L16.324,7.597L16.203,7.64L16.083,7.686L15.964,7.732L15.846,7.78L15.728,7.83L15.612,7.881L15.495,7.933L15.38,7.986L15.265,8.041L15.151,8.097L15.038,8.155L14.926,8.213L14.814,8.273L14.704,8.335L14.594,8.397L14.484,8.461L14.376,8.526L14.269,8.593L14.162,8.66L14.056,8.729L13.952,8.799L13.848,8.87L13.745,8.943L13.642,9.016L13.541,9.091L13.441,9.167L13.342,9.244L13.243,9.323L13.146,9.402L13.049,9.483L12.954,9.564L12.86,9.647L12.766,9.731L12.674,9.816L12.582,9.902L12.492,9.989L12.403,10.077L12.315,10.166L12.228,10.256L12.142,10.347L12.057,10.439L11.974,10.532L11.891,10.626L11.81,10.721L11.729,10.817L11.65,10.914L11.573,11.012L11.496,11.111L11.42,11.211L11.346,11.311L11.273,11.413L11.201,11.515L11.131,11.618L11.062,11.722L10.994,11.827L10.927,11.933L10.861,12.039L10.797,12.147L10.734,12.255L10.673,12.364L10.613,12.473L10.554,12.584L10.496,12.695L10.44,12.807L10.385,12.919L10.332,13.033L10.28,13.147L10.229,13.261L10.18,13.377L10.132,13.493L10.086,13.61L10.041,13.727L9.997,13.845L9.955,13.964L9.915,14.084L9.876,14.204L9.838,14.324L9.802,14.446L9.767,14.568L9.734,14.69L9.702,14.813L9.672,14.937L9.643,15.062L9.616,15.187L9.591,15.312L9.567,15.438L9.545,15.565L9.524,15.692L9.505,15.82L9.487,15.948L9.471,16.077L9.457,16.207L9.444,16.337L9.433,16.467L9.424,16.598L9.416,16.73L9.41,16.862L9.406,16.995L9.403,17.128L9.402,17.274L9.402,45.741L9.403,45.888L9.406,46.021L9.41,46.154L9.416,46.286L9.424,46.418L9.433,46.549L9.444,46.679L9.457,46.809L9.471,46.939L9.487,47.068L9.505,47.196L9.524,47.324L9.545,47.451L9.567,47.578L9.591,47.704L9.616,47.829L9.643,47.954L9.672,48.079L9.702,48.202L9.734,48.326L9.767,48.448L9.802,48.57L9.838,48.691L9.876,48.812L9.915,48.932L9.955,49.052L9.997,49.17L10.041,49.289L10.086,49.406L10.132,49.523L10.18,49.639L10.229,49.754L10.28,49.869L10.332,49.983L10.385,50.097L10.44,50.209L10.496,50.321L10.554,50.432L10.613,50.543L10.673,50.652L10.734,50.761L10.797,50.869L10.861,50.977L10.927,51.083L10.994,51.189L11.062,51.294L11.131,51.398L11.201,51.501L11.273,51.603L11.346,51.705L11.42,51.805L11.496,51.905L11.573,52.004L11.65,52.102L11.729,52.198L11.81,52.294L11.891,52.39L11.974,52.484L12.057,52.577L12.142,52.669L12.228,52.76L12.315,52.85L12.403,52.939L12.492,53.027L12.582,53.114L12.674,53.2L12.766,53.285L12.86,53.369L12.954,53.452L13.049,53.533L13.146,53.614L13.243,53.693L13.342,53.772L13.441,53.849L13.541,53.925L13.642,53.999L13.744,54.073L13.848,54.146L13.952,54.217L14.056,54.287L14.162,54.356L14.269,54.423L14.376,54.49L14.484,54.555L14.594,54.619L14.704,54.681L14.814,54.743L14.926,54.803L15.038,54.861L15.151,54.919L15.265,54.975L15.38,55.03L15.495,55.083L15.612,55.135L15.728,55.186L15.846,55.235L15.964,55.283L16.083,55.33L16.203,55.375L16.324,55.419L16.445,55.462L16.566,55.503L16.689,55.542L16.812,55.581L16.935,55.617L17.06,55.653L17.185,55.687L17.31,55.719L17.437,55.75L17.563,55.779L17.691,55.807L17.819,55.834L17.947,55.858L18.077,55.882L18.207,55.904L18.337,55.924L18.468,55.943L18.599,55.96L18.732,55.975L18.864,55.989L18.997,56.002L19.131,56.013L19.266,56.022L19.4,56.029L19.536,56.035L19.672,56.039L19.809,56.042L19.959,56.043L185.388,56.043L185.538,56.042L185.675,56.039L185.811,56.035L185.946,56.029L186.081,56.022L186.216,56.013L186.349,56.002L186.483,55.989L186.615,55.975L186.747,55.96L186.879,55.943L187.01,55.924L187.14,55.904L187.27,55.882L187.399,55.858L187.528,55.834L187.656,55.807L187.783,55.779L187.91,55.75L188.036,55.719L188.162,55.687L188.287,55.653L188.411,55.617L188.535,55.581L188.658,55.542L188.78,55.503L188.902,55.462L189.023,55.419L189.144,55.375L189.263,55.33L189.382,55.283L189.501,55.235L189.618,55.186L189.735,55.135L189.851,55.083L189.967,55.03L190.081,54.975L190.195,54.919L190.308,54.861L190.421,54.803L190.532,54.743L190.643,54.681L190.753,54.619L190.862,54.555L190.971,54.49L191.078,54.423L191.185,54.356L191.29,54.287L191.395,54.217L191.499,54.146L191.602,54.073L191.704,53.999L191.806,53.925L191.906,53.849L192.005,53.772L192.104,53.693L192.201,53.614L192.297,53.533L192.393,53.452L192.487,53.369L192.581,53.285L192.673,53.2L192.764,53.114L192.855,53.027L192.944,52.939L193.032,52.85L193.119,52.76L193.205,52.669L193.29,52.577L193.373,52.484L193.456,52.39L193.537,52.294L193.617,52.198L193.696,52.102L193.774,52.004L193.851,51.905L193.926,51.805L194,51.705L194.074,51.603L194.145,51.501L194.216,51.398L194.285,51.294L194.353,51.189L194.42,51.083L194.485,50.977L194.55,50.869L194.612,50.761L194.674,50.652L194.734,50.543L194.793,50.432L194.85,50.321L194.907,50.209L194.961,50.097L195.015,49.983L195.067,49.869L195.117,49.755L195.167,49.639L195.214,49.523L195.261,49.406L195.306,49.289L195.349,49.17L195.391,49.052L195.432,48.932L195.471,48.812L195.509,48.691L195.545,48.57L195.58,48.448L195.613,48.326L195.644,48.203L195.675,48.079L195.703,47.954L195.73,47.829L195.756,47.704L195.78,47.578L195.802,47.451L195.823,47.324L195.842,47.196L195.86,47.068L195.876,46.939L195.89,46.809L195.903,46.679L195.914,46.549L195.923,46.418L195.931,46.286L195.937,46.154L195.941,46.021L195.944,45.888L195.945,45.741L195.945,17.274L195.944,17.128L195.941,16.995L195.937,16.862L195.931,16.73L195.923,16.598L195.914,16.467L195.903,16.337L195.89,16.207L195.876,16.077L195.86,15.948L195.842,15.82L195.823,15.692L195.802,15.565L195.78,15.438L195.756,15.312L195.73,15.187L195.703,15.062L195.675,14.937L195.644,14.813L195.613,14.69L195.58,14.568L195.545,14.446L195.509,14.325L195.471,14.204L195.432,14.084L195.391,13.964L195.349,13.846L195.306,13.727L195.261,13.61L195.214,13.493L195.167,13.377L195.117,13.261L195.067,13.147L195.015,13.033L194.961,12.919L194.907,12.807L194.85,12.695L194.793,12.584L194.734,12.473L194.674,12.363L194.612,12.255L194.55,12.147L194.485,12.039L194.42,11.933L194.353,11.827L194.285,11.722L194.216,11.618L194.145,11.515L194.074,11.413L194,11.311L193.926,11.211L193.851,11.111L193.774,11.012L193.696,10.914L193.617,10.818L193.537,10.721L193.456,10.626L193.373,10.532L193.29,10.439L193.205,10.347L193.119,10.256L193.032,10.166L192.944,10.077L192.855,9.989L192.764,9.902L192.673,9.816L192.581,9.731L192.487,9.647L192.393,9.564L192.297,9.482L192.201,9.402L192.104,9.323L192.005,9.244L191.906,9.167L191.806,9.091L191.704,9.016L191.602,8.943L191.499,8.87L191.395,8.799L191.29,8.729L191.184,8.66L191.078,8.593L190.971,8.526L190.862,8.461L190.753,8.397L190.643,8.335L190.532,8.273L190.421,8.213L190.308,8.155L190.195,8.097L190.081,8.041L189.967,7.986L189.851,7.933L189.735,7.881L189.618,7.83L189.501,7.78L189.382,7.732L189.263,7.686L189.144,7.64L189.023,7.597L188.902,7.554L188.78,7.513L188.658,7.473L188.535,7.435L188.411,7.398L188.287,7.363L188.162,7.329L188.036,7.297L187.91,7.266L187.783,7.237L187.656,7.209L187.528,7.182L187.399,7.157L187.27,7.134L187.14,7.112L187.01,7.092L186.879,7.073L186.747,7.056L186.615,7.04L186.483,7.026L186.349,7.014L186.215,7.003L186.081,6.994L185.946,6.987L185.811,6.981L185.675,6.977L185.538,6.974L185.388,6.973L19.959,6.973Z" style="fill:white;"/>
        </g>
    </g>
</svg>
