<?xml version="1.0" encoding="UTF-8" standalone="no"?>
<!DOCTYPE svg PUBLIC "-//W3C//DTD SVG 1.1//EN" "http://www.w3.org/Graphics/SVG/1.1/DTD/svg11.dtd">
<svg width="100%" height="100%" viewBox="0 0 1600 600" version="1.1" xmlns="http://www.w3.org/2000/svg" xmlns:xlink="http://www.w3.org/1999/xlink" xml:space="preserve" xmlns:serif="http://www.serif.com/" style="fill-rule:evenodd;clip-rule:evenodd;stroke-linejoin:round;stroke-miterlimit:1.41421;">
    <g id="Artboard1" transform="matrix(1,0,0,0.799776,0,0)">
        <rect x="0" y="0" width="1600" height="750.21" style="fill:none;"/>
        <clipPath id="_clip1">
            <rect x="0" y="0" width="1600" height="750.21"/>
        </clipPath>
        <g clip-path="url(#_clip1)">
            <g id="Background" transform="matrix(1,0,0,1.25035,0,0.402762)">
                <g transform="matrix(3734.97,0,0,-853.917,-1534.88,6.55594)">
                    <rect x="0.411" y="-0.998" width="0.428" height="1.006" style="fill:url(#_Radial2);"/>
                </g>
                <g transform="matrix(1,0,0,1,209.722,387.773)">
                    <path d="M0,459.195L1390.28,401.825L1390.28,112.133L1303.01,26.566L1119.26,0L0,459.195Z" style="fill:rgb(31,35,29);fill-rule:nonzero;"/>
                </g>
                <g opacity="0.399994">
                    <g transform="matrix(0,-459.195,-459.195,-0,904.86,846.968)">
                        <path d="M0.756,-1.514L0.125,-1.514L0,1.514L1,-0.924L0.942,-1.324L0.756,-1.514Z" style="fill:url(#_Linear3);fill-rule:nonzero;"/>
                    </g>
                </g>
                <g transform="matrix(1,0,0,1,323.739,505.809)">
                    <path d="M0,184.226C-21.07,148.723 -25.35,93.942 -17.514,70.455C-17.243,71.73 -18.355,75.143 -17.243,79.451C-16.132,75.005 -14.511,69.42 -15.832,67.143C-12.755,68.834 -9.949,72.761 -9.374,75.326C-8.224,72.097 -11.303,65.817 -14.469,62.629C-10.617,64.097 -8.091,67.011 -5.614,69.62C-5.659,65.861 -10.037,59.802 -12.929,58.09C-9.374,58.961 -2.784,61.88 0.048,65.241C-1.324,60.067 -6.189,55.644 -10.978,52.914C-3.013,53.597 5.547,54.763 15.733,67.91C11.74,53.87 8.372,49.643 -0.337,47.4C14.79,45.239 21.489,54.761 31.586,64.656C27.419,55.269 20.265,42.678 8.676,38.958C19.189,38.579 25.348,38.091 34.965,48.398C29.825,38.399 15.315,30.372 -1.819,29.601C4.587,26.998 23.587,21.805 31.163,27.595C27.819,20.171 7.442,21.436 0.027,23.578C2.683,20.406 15.673,10.954 20.336,15.291C18.275,8.242 -0.407,13.862 -4.823,18.653C-4.498,11.387 -14.041,4.23 -19.68,7.158C-15.45,7.375 -12.742,15.341 -11.543,20.339C-11.838,16.257 -33.777,0 -41.693,3.145C-35.838,2.745 -21.58,17.419 -16.002,31.323C-36.199,14.585 -53.932,11.038 -61.405,14.965C-50.638,14.585 -26.952,33.457 -21.83,40.744C-31.639,34.851 -42.532,30.671 -54.945,35.611C-42.496,37.59 -32.272,42.831 -24.277,49.272C-29.945,48.226 -35.924,48.924 -41.198,51.25C-35.147,50.611 -29.242,50.298 -24.718,54.366C-28.24,54.491 -35.698,57.18 -36.964,59.757C-33.213,59.34 -27.088,59.194 -26.079,60.1C-29.749,59.346 -34.246,62.72 -35.783,66.337C-32.528,64.98 -31.4,62.506 -28.474,64.208C-31.47,64.153 -35.251,68.312 -36.2,71.341C-33.668,69.668 -31.859,67.157 -28.777,68.002C-30.553,69.027 -31.296,74.801 -31.033,77.654C-30.568,75.245 -29.226,70.68 -28.501,70.819C-29.136,72.237 -35.718,131.827 -13.19,179.981" style="fill:rgb(24,29,25);fill-rule:nonzero;"/>
                </g>
                <g transform="matrix(1,0,0,1,291.414,427.104)">
                    <path d="M0,238.998C-16.135,188.797 -5.879,119.369 10.56,92.353C10.534,94.018 8.179,97.952 8.338,103.631C10.986,98.412 14.594,91.919 13.597,88.708C16.946,91.688 19.324,97.376 19.31,100.734C21.66,97.041 19.613,88.345 16.578,83.475C20.957,86.398 23.272,90.746 25.614,94.699C26.629,90.006 22.9,81.215 19.787,78.261C23.966,80.357 31.341,85.867 33.911,90.856C33.674,84.024 28.875,77.133 23.689,72.372C33.413,75.488 43.74,79.375 52.682,98.644C51.705,80.025 48.713,73.804 38.507,68.533C57.957,70.145 63.59,83.909 73.347,99.102C70.829,86.227 65.503,68.515 52.132,60.586C65.33,63.104 73.138,64.249 82.18,79.819C78.624,65.907 62.84,51.785 41.726,45.949C50.443,44.53 75.578,43.469 83.364,52.835C81.312,42.64 55.58,38.417 45.738,38.975C49.947,35.78 68.811,27.706 73.383,34.435C72.823,25.071 47.961,26.753 41.1,31.462C43.572,22.508 33.726,10.881 25.872,12.923C31.076,14.396 32.182,25.085 32.252,31.65C33.047,26.484 10.354,0 -0.397,1.664C7.008,2.831 20.586,25.159 23.576,44.058C3.19,17.471 -17.881,8.01 -28.304,10.772C-14.79,13.362 9.334,43.601 13.639,54.13C3.102,44.002 -9.272,35.699 -26.134,38.318C-11.196,44.324 0.043,53.758 8.166,64.053C1.405,61.138 -6.237,60.307 -13.466,61.702C-5.75,62.628 1.691,63.918 6.167,70.27C1.747,69.424 -8.305,70.65 -10.615,73.499C-5.826,74.047 1.843,75.607 2.842,77.022C-1.514,75.04 -8.073,77.961 -11.017,82.028C-6.577,81.265 -4.468,78.505 -1.31,81.457C-5.024,80.537 -10.916,84.639 -12.959,88.141C-9.331,86.778 -6.363,84.165 -2.767,86.094C-5.269,86.866 -7.837,93.843 -8.321,97.471C-7.057,94.603 -4.087,89.301 -3.225,89.681C-4.417,91.266 -29.567,163.592 -15.216,229.96" style="fill:rgb(24,29,25);fill-rule:nonzero;"/>
                </g>
                <g transform="matrix(1,0,0,1,164.885,396.717)">
                    <path d="M0,482.05C-45.444,368.722 -69.54,256.009 -74.41,164.679C-64.445,165.705 -57.398,173.48 -53.036,179.585C-53.601,169.819 -61.621,155.16 -73.486,150.298C-61.728,149.875 -53.864,149.475 -44.453,153.584C-48.747,143.749 -64.977,137.94 -74.481,136.654C-64.167,134.993 -47.466,138.001 -36.288,143.689C-45.644,131.612 -53.414,123.828 -69.037,121.971C-53.517,121.479 -15.753,126.992 -6.922,136.596C-5.328,119.902 -38.707,94.281 -62.74,95.849C-39.738,90.625 10.685,112.059 19.249,125.091C17.817,100.991 -26.385,71.356 -52.043,66.556C-38.274,59.738 -4.892,71.398 14.249,87.467C10.877,60.438 -31.028,32.399 -76.931,49.409C-62.981,35.447 -22.534,28.388 -8.874,36.573C-17.416,17.635 -61.658,17.653 -78.77,31.524C-75.313,20.232 -59.673,4.026 -42.594,10.248C-55.843,-5.994 -100.281,25.467 -106.567,42.969C-112.009,27.553 -159.122,23.361 -170.693,37.325C-159.333,33.196 -140.757,37.02 -129.464,51.037C-153.06,36.615 -213.529,59.189 -208.335,85.448C-203.245,74.623 -154.253,60.978 -141.208,75.329C-187.581,75.065 -218,122.283 -209.472,131.027C-206.438,121.691 -154.028,99.21 -138.818,103.846C-166.251,110.073 -183.146,138.69 -183.048,157.976C-172.534,146.015 -145.607,122.357 -123.139,123.746C-139.203,127.294 -148.082,141.435 -152.06,155.078C-145.138,147.321 -126.027,134.296 -109.612,139.963C-118.733,144.205 -135.353,159.563 -135.817,167.745C-126.418,162.481 -110.478,155.288 -106.818,156.549C-117.306,158.646 -125.379,172.512 -125.401,183.731C-118.349,176.547 -118.133,168.788 -108.549,170.013C-116.487,173.197 -121.806,188.332 -120.936,197.351C-116.138,190.139 -111.342,178.558 -102.303,177.355C-97.675,204.636 -71.674,363.73 -25.062,488.044" style="fill:rgb(24,29,25);fill-rule:nonzero;"/>
                </g>
                <g transform="matrix(1,0,0,1,810.842,533.078)">
                    <path d="M0,169.731C0.793,126.96 8.392,87.298 19.278,57.16C22.354,58.851 23.567,62.321 24.143,64.886C25.292,61.658 24.704,55.833 21.538,52.645C25.39,54.113 27.982,55.057 30.459,57.666C30.415,53.907 25.97,49.818 23.078,48.106C26.633,48.978 31.612,52.226 34.444,55.586C33.072,50.413 31.626,46.841 26.838,44.111C31.913,46.069 43.348,53 44.888,57.303C47.68,52.133 40.403,39.312 32.433,36.54C40.569,37.991 53.917,51.787 54.903,57.16C57.729,49.188 47.506,33.594 39.881,28.545C45.254,28.223 54.437,36.54 58.422,44.336C61.021,35.154 51.322,20.389 34.188,19.617C40.594,17.014 54.61,20.253 57.902,24.758C57.729,17.481 43.449,11.452 36.034,13.594C38.69,10.422 45.948,7.325 50.611,11.663C48.551,4.614 29.918,8.706 25.502,13.496C25.849,7.779 11.217,0 5.578,2.927C9.807,3.145 15.28,6.913 17.013,12.977C11.365,5.104 -11.229,4.14 -13.134,13.323C-10.015,10.524 7.657,12.803 9.909,19.214C-5.02,12.803 -21.277,23.892 -19.718,27.877C-17.466,25.278 2.515,25.172 6.791,28.743C-2.912,27.01 -12.268,33.941 -14.867,40.178C-9.842,37.752 2.075,33.791 9.136,37.304C3.468,36.257 -1.326,39.61 -4.471,43.47C-1.179,41.911 6.765,40.314 11.29,44.382C7.767,44.507 0.309,47.196 -0.957,49.773C2.794,49.357 8.919,49.21 9.929,50.116C6.258,49.362 1.761,52.736 0.224,56.353C3.479,54.997 4.607,52.523 7.533,54.225C4.537,54.17 0.756,58.328 -0.193,61.358C2.339,59.685 5.466,56.602 8.547,57.446C6.319,66.882 -6.991,121.77 -8.906,168.247" style="fill:rgb(24,29,25);fill-rule:nonzero;"/>
                </g>
                <g transform="matrix(1,0,0,1,432.493,465.729)">
                    <path d="M0,412.132C1.926,308.277 20.376,211.974 46.811,138.795C54.279,142.899 57.226,151.325 58.622,157.554C61.414,149.715 59.984,135.571 52.298,127.831C61.652,131.395 67.945,133.686 73.959,140.022C73.852,130.894 63.059,120.966 56.037,116.81C64.67,118.925 76.76,126.814 83.635,134.973C80.304,122.411 76.793,113.737 65.167,107.108C77.49,111.863 105.256,128.691 108.996,139.142C115.774,126.588 98.104,95.456 78.752,88.725C98.507,92.25 130.919,125.746 133.314,138.795C140.174,119.436 115.353,81.573 96.836,69.314C109.884,68.531 132.181,88.725 141.857,107.656C148.167,85.359 124.618,49.508 83.014,47.634C98.569,41.314 132.602,49.179 140.595,60.117C140.174,42.448 105.5,27.809 87.497,33.009C93.946,25.307 111.569,17.787 122.892,28.32C117.889,11.204 72.647,21.139 61.924,32.772C62.766,18.889 27.237,0 13.544,7.11C23.813,7.636 37.103,16.785 41.31,31.51C27.597,12.394 -27.264,10.054 -31.891,32.351C-24.316,25.555 18.593,31.089 24.062,46.655C-12.189,31.089 -51.664,58.014 -47.878,67.69C-42.409,61.38 6.106,61.122 16.489,69.793C-7.07,65.587 -29.788,82.414 -36.098,97.559C-23.898,91.67 5.038,82.049 22.184,90.58C8.421,88.039 -3.22,96.179 -10.856,105.553C-2.863,101.766 16.427,97.889 27.413,107.768C18.86,108.071 0.75,114.6 -2.324,120.858C6.785,119.846 21.658,119.49 24.108,121.69C15.196,119.859 4.277,128.051 0.544,136.835C8.449,133.541 11.188,127.532 18.292,131.667C11.018,131.533 1.837,141.631 -0.469,148.986C5.679,144.924 13.273,137.438 20.755,139.489C15.345,162.4 -16.975,295.676 -21.625,408.528" style="fill:rgb(24,29,25);fill-rule:nonzero;"/>
                </g>
                <g transform="matrix(1,0,0,1,644.355,545.442)">
                    <path d="M0,123.687C5.978,96.83 -2.678,61.246 -12.515,47.997C-12.421,48.86 -11.009,50.791 -10.819,53.75C-12.446,51.165 -14.631,47.964 -14.267,46.248C-15.865,47.957 -16.827,51.026 -16.659,52.77C-18.058,50.964 -17.41,46.347 -16.067,43.671C-18.202,45.4 -19.197,47.77 -20.224,49.937C-20.976,47.546 -19.46,42.8 -17.984,41.116C-20.055,42.406 -23.623,45.622 -24.719,48.338C-24.923,44.776 -22.76,40.966 -20.293,38.243C-25.197,40.329 -30.376,42.843 -34.1,53.283C-34.484,43.562 -33.228,40.186 -28.177,36.958C-38.206,38.729 -40.473,46.15 -44.815,54.511C-44.124,47.702 -42.205,38.243 -35.637,33.482C-42.375,35.423 -46.376,36.392 -50.329,44.916C-49.147,37.516 -41.623,29.422 -30.932,25.378C-35.529,25.059 -48.64,25.712 -52.237,30.951C-51.659,25.555 -38.491,22.128 -33.351,21.946C-35.691,20.488 -45.879,17.197 -47.933,20.912C-48.09,16.02 -35.092,15.703 -31.301,17.821C-33.014,13.287 -28.456,6.773 -24.276,7.458C-26.91,8.473 -26.972,14.08 -26.694,17.495C-27.355,14.848 -16.833,0 -11.167,0.349C-14.958,1.31 -20.943,13.562 -21.591,23.526C-12.273,8.734 -1.778,2.809 3.77,3.745C-3.127,5.738 -14.213,22.606 -15.945,28.283C-10.956,22.516 -4.924,17.608 3.963,18.161C-3.511,21.998 -8.899,27.438 -12.626,33.177C-9.253,31.338 -5.322,30.54 -1.499,30.919C-5.464,31.77 -9.269,32.796 -11.29,36.312C-9.033,35.66 -3.752,35.815 -2.415,37.185C-4.877,37.7 -8.788,38.877 -9.239,39.661C-7.07,38.421 -3.522,39.625 -1.798,41.597C-4.141,41.414 -5.369,40.081 -6.869,41.766C-4.983,41.109 -1.725,42.959 -0.496,44.681C-2.446,44.146 -4.113,42.931 -5.89,44.105C-4.553,44.387 -2.884,47.889 -2.458,49.75C-3.253,48.321 -5.05,45.708 -5.48,45.947C-4.784,46.713 11.75,83.089 7.473,118.262" style="fill:rgb(24,29,25);fill-rule:nonzero;"/>
                </g>
                <g transform="matrix(1,0,0,1,746.979,555.434)">
                    <path d="M0,124.046C1.726,95.665 -12.905,60.762 -25.101,48.843C-24.865,49.71 -23.109,51.45 -22.434,54.439C-24.515,52.066 -27.267,49.155 -27.175,47.345C-28.526,49.349 -29.009,52.638 -28.553,54.39C-30.274,52.775 -30.366,47.958 -29.431,45.009C-31.328,47.121 -31.958,49.701 -32.653,52.08C-33.81,49.763 -33.036,44.672 -31.804,42.713C-33.707,44.367 -36.824,48.23 -37.5,51.18C-38.289,47.579 -36.702,43.338 -34.629,40.157C-39.292,43.085 -44.169,46.494 -46.268,57.755C-48.243,47.898 -47.511,44.248 -42.883,40.131C-52.829,43.571 -53.934,51.514 -57.002,60.754C-57.406,53.692 -56.989,43.727 -51.062,37.799C-57.622,40.877 -61.547,42.518 -64.192,51.86C-64.192,44.117 -57.833,34.63 -47.581,28.762C-52.324,29.185 -65.597,31.987 -68.414,37.92C-68.704,32.32 -55.824,26.677 -50.608,25.654C-53.234,24.547 -64.167,22.849 -65.657,26.974C-66.615,22.008 -53.402,19.567 -49.188,21.11C-51.676,16.762 -48.084,9.373 -43.708,9.391C-46.23,10.856 -45.38,16.588 -44.541,20.026C-45.646,17.434 -37.327,0.567 -31.488,0C-35.201,1.599 -39.313,15.077 -38.351,25.35C-31.251,8.737 -21.506,0.981 -15.692,1.032C-22.407,4.19 -30.971,23.21 -31.814,29.285C-27.662,22.587 -22.306,16.596 -13.147,15.713C-20.149,20.845 -24.761,27.275 -27.629,33.738C-24.487,31.313 -20.605,29.858 -16.643,29.622C-20.55,31.136 -24.265,32.803 -25.755,36.72C-23.559,35.687 -18.144,34.985 -16.557,36.166C-18.985,37.091 -22.784,38.931 -23.116,39.803C-21.105,38.186 -17.289,38.836 -15.208,40.567C-17.629,40.762 -19.099,39.602 -20.355,41.566C-18.538,40.588 -14.912,41.945 -13.376,43.502C-15.454,43.275 -17.354,42.306 -18.975,43.794C-17.564,43.863 -15.291,47.165 -14.553,48.995C-15.597,47.666 -17.856,45.293 -18.256,45.607C-17.421,46.275 5.376,80.702 6.742,117.292" style="fill:rgb(24,29,25);fill-rule:nonzero;"/>
                </g>
                <g transform="matrix(1,0,0,1,779.812,573.689)">
                    <path d="M0,281.323C32.175,227.108 38.711,143.454 26.745,107.588C26.332,109.534 28.029,114.748 26.332,121.324C24.635,114.535 22.159,106.008 24.175,102.531C19.479,105.112 15.192,111.109 14.314,115.026C12.559,110.095 17.261,100.505 22.095,95.637C16.212,97.878 12.356,102.328 8.574,106.313C8.641,100.572 15.328,91.319 19.744,88.706C14.314,90.036 4.251,94.493 -0.073,99.625C2.022,91.724 9.452,84.97 16.764,80.802C4.601,81.845 -8.471,83.625 -24.026,103.702C-17.928,82.261 -12.785,75.806 0.515,72.381C-22.585,69.081 -32.815,83.623 -48.234,98.732C-41.871,84.398 -30.946,65.171 -13.25,59.49C-29.303,58.91 -38.708,58.165 -53.394,73.905C-45.544,58.637 -23.387,46.38 2.778,45.201C-7.005,41.226 -36.019,33.296 -47.587,42.138C-42.481,30.801 -11.364,32.733 -0.042,36.004C-4.097,31.159 -23.934,16.725 -31.054,23.349C-27.908,12.585 0.622,21.167 7.365,28.483C6.868,17.387 21.441,6.458 30.052,10.929C23.594,11.261 19.458,23.426 17.628,31.058C18.077,24.824 51.58,0 63.669,4.802C54.727,4.19 32.954,26.599 24.436,47.83C55.278,22.27 82.357,16.855 93.769,22.851C77.328,22.27 41.158,51.091 33.336,62.217C48.314,53.218 64.949,46.835 83.904,54.379C64.895,57.401 49.282,65.404 37.073,75.24C45.729,73.642 54.858,74.709 62.912,78.261C53.671,77.285 44.655,76.806 37.746,83.019C43.125,83.21 54.514,87.316 56.447,91.252C50.719,90.615 41.365,90.391 39.824,91.775C45.429,90.623 52.296,95.775 54.644,101.299C49.672,99.228 47.949,95.449 43.481,98.05C48.056,97.965 53.831,104.315 55.28,108.942C51.414,106.387 48.65,102.552 43.945,103.842C46.656,105.408 47.792,114.224 47.39,118.581C46.679,114.902 44.63,107.931 43.523,108.144C44.492,110.309 54.544,201.307 20.142,274.841" style="fill:rgb(24,29,25);fill-rule:nonzero;"/>
                </g>
                <g transform="matrix(1,0,0,1,542.035,152.299)">
                    <path d="M0,587.516C67.195,474.294 80.845,299.591 55.854,224.687C54.991,228.753 58.536,239.64 54.991,253.375C51.447,239.197 46.276,221.388 50.488,214.126C40.678,219.517 31.728,232.04 29.895,240.221C26.227,229.924 36.048,209.895 46.144,199.729C33.858,204.409 25.804,213.704 17.905,222.025C18.046,210.036 32.01,190.712 41.232,185.254C29.895,188.032 8.878,197.342 -0.152,208.058C4.223,191.558 19.739,177.454 35.009,168.746C9.608,170.926 -17.692,174.643 -50.176,216.572C-37.441,171.796 -26.699,158.315 1.076,151.162C-47.167,144.27 -68.532,174.639 -100.732,206.193C-87.442,176.257 -64.628,136.104 -27.67,124.241C-61.197,123.029 -80.838,121.474 -111.508,154.345C-95.114,122.458 -48.841,96.86 5.801,94.399C-14.629,86.097 -75.221,69.536 -99.382,88.002C-88.717,64.326 -23.732,68.36 -0.087,75.191C-8.557,65.074 -49.983,34.93 -64.854,48.764C-58.283,26.284 1.298,44.206 15.381,59.485C14.343,36.313 44.777,13.488 62.761,22.826C49.273,23.517 40.637,48.922 36.814,64.863C37.752,51.844 107.72,0 132.966,10.03C114.291,8.75 68.821,55.55 51.032,99.891C115.442,46.511 171.994,35.2 195.827,47.723C161.492,46.511 85.954,106.699 69.619,129.935C100.9,111.142 135.639,97.812 175.226,113.566C135.525,119.877 102.919,136.591 77.423,157.132C95.5,153.795 114.565,156.024 131.384,163.44C112.087,161.403 93.257,160.404 78.828,173.378C90.061,173.776 113.846,182.351 117.883,190.571C105.92,189.242 86.386,188.773 83.168,191.663C94.874,189.258 109.214,200.018 114.117,211.554C103.735,207.228 100.137,199.337 90.807,204.767C100.361,204.591 112.419,217.853 115.447,227.515C107.372,222.179 101.601,214.169 91.774,216.864C97.436,220.135 99.808,238.546 98.968,247.645C97.484,239.963 93.205,225.404 90.894,225.849C92.917,230.37 113.909,420.41 42.064,573.979" style="fill:rgb(24,29,25);fill-rule:nonzero;"/>
                </g>
                <g transform="matrix(1,0,0,1,847.312,519.139)">
                    <path d="M0,172.332C31.347,145.466 52.977,94.955 53.09,70.195C52.425,71.315 52.382,74.906 49.948,78.628C50.321,74.061 50.578,68.251 52.559,66.519C49.104,67.133 45.186,69.952 43.818,72.197C43.765,68.769 48.696,63.809 52.717,61.806C48.598,61.96 45.271,63.91 42.087,65.586C43.335,62.04 49.427,57.706 52.715,57.013C49.068,56.697 41.89,57.348 38.13,59.622C41.089,55.162 47.116,52.534 52.527,51.484C44.764,49.576 36.283,47.933 22.417,57.118C30.704,45.101 35.25,42.178 44.219,42.848C30.584,35.947 21.184,42.817 8.446,48.949C15.405,41.395 26.22,31.766 38.39,31.96C28.555,28.228 22.878,25.79 10.462,32.466C18.539,24.646 34.857,21.699 51.333,26.465C46.101,21.944 29.771,10.93 20.738,13.983C26.287,8.025 45.181,15.761 51.517,20.168C50.019,16.311 40.749,3.191 34.94,5.804C39.153,-0.211 55.045,11.105 57.69,17.06C59.713,10.074 71.048,6.356 75.45,10.939C71.375,9.788 66.254,16.464 63.515,20.813C65.103,17.041 91.098,8.683 97.587,14.202C92.169,11.943 73.958,21.268 64.213,32.646C88.712,23.273 106.646,25.603 112.464,31.72C102.389,27.906 73.9,38.182 66.711,43.439C77.892,41.005 89.55,40.541 99.722,49.203C87.296,47.083 75.931,48.766 66.292,52.302C71.997,53.129 77.435,55.709 81.684,59.604C76.158,57.058 70.666,54.866 65.075,57.268C68.371,58.516 74.572,63.456 74.944,66.303C71.525,64.705 65.771,62.601 64.524,63.135C68.243,63.599 71.419,68.237 71.715,72.156C69.067,69.827 68.792,67.121 65.475,67.795C68.33,68.704 70.577,73.856 70.504,77.03C68.643,74.633 67.735,71.673 64.545,71.485C65.897,73.026 64.75,78.733 63.585,81.351C63.917,78.92 64.111,74.165 63.38,74.065C63.526,75.611 50.641,134.163 13.854,172.543" style="fill:rgb(24,29,25);fill-rule:nonzero;"/>
                </g>
                <g transform="matrix(1,0,0,1,619.105,369.159)">
                    <path d="M0,407.523C36.442,311.285 54.905,215.913 57.517,138.873C49.137,139.9 43.326,146.567 39.75,151.783C40.066,143.544 46.585,131.061 56.503,126.77C46.588,126.606 39.956,126.398 32.093,130.013C35.55,121.656 49.131,116.495 57.119,115.256C48.4,114.025 34.376,116.833 25.05,121.808C32.737,111.479 39.157,104.793 52.292,102.973C39.206,102.812 7.474,108.074 0.189,116.312C-1.426,102.27 26.281,80.135 46.559,81.064C27.091,77.038 -15.048,95.923 -22.052,107.044C-21.239,86.713 15.523,61.018 37.067,56.555C25.353,51.034 -2.587,61.405 -18.453,75.258C-16.053,52.427 18.8,28.115 57.758,41.699C45.775,30.162 11.577,24.875 0.2,31.995C7.088,15.897 44.369,15.19 59.016,26.598C55.918,17.14 42.474,3.738 28.184,9.26C39.083,-4.642 77.043,21.143 82.626,35.788C86.96,22.709 126.591,18.407 136.57,29.984C126.931,26.69 111.339,30.216 102.052,42.212C121.699,29.674 173.023,47.709 169.076,69.921C164.609,60.882 123.103,50.185 112.345,62.49C151.417,61.511 177.821,100.802 170.778,108.309C168.069,100.492 123.539,82.404 110.797,86.56C134.016,91.359 148.72,115.197 148.952,131.45C139.897,121.543 116.821,102.047 97.91,103.585C111.505,106.312 119.217,118.083 122.792,129.515C116.833,123.091 100.516,112.427 86.776,117.471C94.532,120.897 108.787,133.566 109.312,140.454C101.306,136.171 87.756,130.371 84.693,131.493C93.565,133.088 100.594,144.642 100.796,154.094C94.737,148.156 94.428,141.621 86.372,142.811C93.112,145.363 97.842,158.03 97.256,165.645C93.096,159.646 88.865,149.965 81.228,149.099C77.774,172.164 58.464,306.649 21.217,412.165" style="fill:rgb(24,29,25);fill-rule:nonzero;"/>
                </g>
                <g transform="matrix(1,0,0,1,78.3774,-199.749)">
                    <path d="M0,1054.07C65.635,798.894 85.761,550.986 70.71,354.197C49.673,359.172 36.762,377.774 29.13,392.055C27.615,371 40.689,337.396 64.722,323.681C39.443,326.056 22.506,327.395 3.513,338.81C9.958,316.569 43.067,299.611 63.046,294.208C40.511,293.531 5.614,304.626 -16.719,319.914C-0.067,291.462 14.389,272.638 47.3,264.308C13.955,267.585 -65.316,289.913 -81.535,312.927C-89.601,277.648 -25.323,213.515 26.542,210.168C-24.135,205.404 -126.053,265.333 -140.745,295.607C-144.403,243.638 -58.083,167.896 -4.517,150.47C-35.881,139.72 -104.063,173.98 -140.539,213.704C-140.862,154.925 -59.012,83.239 43.956,106.838C10.212,80.851 -78.307,77.027 -105.254,98.351C-92.258,55.444 2.417,43.144 42.902,68.051C32.356,44.854 -5.63,14.536 -40.442,32.614C-16.62,-5.836 87.244,49.092 105.575,84.791C112.922,50.284 212.566,28.175 241.221,54.828C215.761,49.16 177.078,62.524 156.821,95.668C203.29,58.228 338.98,89.667 335.19,147.306C321.277,125.562 212.639,110.027 188.727,144.373C287.884,130.876 366.143,223.43 350.333,244.518C341.238,225.388 222.82,191.899 191.565,206.063C252.004,211.736 296.14,268.259 301.307,309.555C275.473,286.894 211.257,243.777 163.565,253.017C198.93,256.128 221.872,283.912 234.19,311.997C217.215,297.328 172.688,274.786 139.143,291.492C159.843,298.026 199.689,326.252 202.965,343.632C181.386,334.989 145.27,324.044 137.791,327.762C160.817,329.323 181.959,356.745 185.135,380.743C168.043,367.338 165.417,350.796 145.25,356.09C163.123,360.689 178.726,391.591 179.38,411.135C167.102,397.04 153.609,373.596 133.931,373.543C131.638,433.211 120.372,780.894 55.302,1059.9" style="fill:rgb(24,29,25);fill-rule:nonzero;"/>
                </g>
                <g transform="matrix(1,0,0,1,210.668,-42.8452)">
                    <path d="M0,963.728C60.01,730.423 78.411,503.763 64.65,323.84C45.416,328.388 33.611,345.396 26.634,358.453C25.248,339.202 37.202,308.478 59.175,295.939C36.063,298.111 20.577,299.334 3.212,309.771C9.105,289.436 39.376,273.931 57.643,268.992C37.039,268.373 5.133,278.517 -15.286,292.495C-0.062,266.481 13.156,249.271 43.247,241.655C12.759,244.65 -59.718,265.065 -74.547,286.107C-81.922,253.851 -23.153,195.215 24.267,192.155C-22.067,187.799 -115.25,242.592 -128.682,270.271C-132.027,222.756 -53.105,153.505 -4.129,137.573C-32.806,127.745 -95.144,159.068 -128.493,195.388C-128.789,141.646 -53.955,76.105 40.188,97.68C9.337,73.921 -71.595,70.425 -96.233,89.921C-84.351,50.691 2.21,39.446 39.226,62.218C29.583,41.01 -5.148,13.29 -36.976,29.818C-15.195,-5.336 79.767,44.884 96.527,77.523C103.244,45.974 194.348,25.76 220.547,50.129C197.27,44.946 161.901,57.165 143.38,87.468C185.867,53.237 309.927,81.981 306.462,134.68C293.742,114.8 194.414,100.597 172.552,131.999C263.21,119.659 334.762,204.28 320.308,223.561C311.992,206.07 203.723,175.451 175.147,188.402C230.406,193.589 270.758,245.267 275.483,283.023C251.863,262.305 193.151,222.884 149.546,231.332C181.88,234.176 202.856,259.579 214.119,285.257C198.599,271.845 157.887,251.234 127.217,266.508C146.144,272.482 182.575,298.29 185.57,314.18C165.84,306.278 132.819,296.27 125.981,299.67C147.034,301.098 166.364,326.169 169.268,348.111C153.641,335.854 151.239,320.729 132.801,325.571C149.142,329.775 163.408,358.029 164.006,375.897C152.78,363.011 140.444,341.576 122.453,341.528C120.356,396.082 110.055,713.966 50.562,969.064" style="fill:rgb(24,29,25);fill-rule:nonzero;"/>
                </g>
                <g transform="matrix(1,0,0,1,771.74,514.616)">
                    <path d="M0,169.731C-0.793,126.96 -8.392,87.298 -19.278,57.16C-22.354,58.851 -23.567,62.321 -24.143,64.886C-25.292,61.658 -24.704,55.833 -21.538,52.645C-25.39,54.113 -27.982,55.056 -30.459,57.666C-30.415,53.906 -25.97,49.818 -23.078,48.106C-26.633,48.978 -31.612,52.226 -34.444,55.586C-33.072,50.413 -31.626,46.841 -26.838,44.111C-31.913,46.069 -43.348,53 -44.888,57.303C-47.68,52.133 -40.403,39.312 -32.433,36.54C-40.569,37.991 -53.917,51.787 -54.903,57.16C-57.729,49.188 -47.506,33.594 -39.881,28.545C-45.254,28.223 -54.437,36.54 -58.422,44.336C-61.021,35.154 -51.322,20.389 -34.188,19.617C-40.594,17.014 -54.61,20.253 -57.902,24.758C-57.729,17.481 -43.449,11.452 -36.034,13.594C-38.69,10.422 -45.948,7.325 -50.611,11.663C-48.551,4.614 -29.918,8.705 -25.502,13.496C-25.849,7.779 -11.217,0 -5.578,2.927C-9.807,3.144 -15.28,6.912 -17.013,12.977C-11.365,5.104 11.229,4.14 13.134,13.323C10.015,10.524 -7.657,12.803 -9.909,19.214C5.02,12.803 21.277,23.892 19.718,27.877C17.466,25.278 -2.515,25.172 -6.791,28.743C2.912,27.01 12.268,33.941 14.867,40.178C9.842,37.752 -2.075,33.791 -9.136,37.304C-3.468,36.257 1.326,39.61 4.471,43.47C1.179,41.911 -6.765,40.314 -11.29,44.382C-7.767,44.507 -0.309,47.196 0.957,49.773C-2.794,49.356 -8.919,49.21 -9.928,50.116C-6.258,49.362 -1.761,52.736 -0.224,56.353C-3.479,54.997 -4.607,52.522 -7.533,54.225C-4.537,54.169 -0.756,58.328 0.193,61.358C-2.339,59.685 -5.466,56.602 -8.547,57.446C-6.319,66.882 6.991,121.77 8.906,168.247" style="fill:rgb(24,29,25);fill-rule:nonzero;"/>
                </g>
                <g transform="matrix(1,0,0,1,694.165,464.412)">
                    <path d="M0,247.458C-1.157,185.1 -12.235,127.276 -28.106,83.336C-32.591,85.801 -34.36,90.861 -35.199,94.601C-36.875,89.894 -36.017,81.401 -31.401,76.754C-37.018,78.894 -40.797,80.27 -44.408,84.074C-44.344,78.593 -37.863,72.632 -33.647,70.136C-38.83,71.406 -46.089,76.143 -50.218,81.042C-48.217,73.499 -46.11,68.291 -39.128,64.311C-46.528,67.166 -63.2,77.27 -65.445,83.545C-69.515,76.007 -58.906,57.314 -47.286,53.273C-59.147,55.389 -78.608,75.502 -80.046,83.336C-84.166,71.713 -69.262,48.979 -58.144,41.618C-65.979,41.148 -79.366,53.273 -85.176,64.64C-88.965,51.252 -74.825,29.726 -49.845,28.601C-59.185,24.806 -79.619,29.528 -84.418,36.096C-84.166,25.487 -63.346,16.697 -52.537,19.82C-56.408,15.195 -66.99,10.68 -73.789,17.004C-70.785,6.727 -43.62,12.692 -37.182,19.677C-37.687,11.341 -16.354,0 -8.132,4.268C-14.298,4.584 -22.278,10.078 -24.804,18.919C-16.57,7.441 16.37,6.036 19.148,19.424C14.601,15.343 -11.164,18.666 -14.448,28.013C7.319,18.666 31.021,34.833 28.748,40.643C25.463,36.854 -3.667,36.699 -9.901,41.906C4.245,39.38 17.886,49.484 21.675,58.578C14.349,55.041 -3.025,49.265 -13.32,54.387C-5.056,52.861 1.933,57.749 6.519,63.377C1.719,61.104 -9.863,58.776 -16.459,64.707C-11.324,64.889 -0.451,68.81 1.395,72.567C-4.074,71.959 -13.004,71.746 -14.476,73.066C-9.124,71.967 -2.568,76.886 -0.327,82.16C-5.073,80.182 -6.718,76.575 -10.983,79.057C-6.616,78.977 -1.103,85.04 0.281,89.457C-3.41,87.017 -7.97,82.522 -12.462,83.754C-9.214,97.51 10.192,177.534 12.984,245.294" style="fill:rgb(24,29,25);fill-rule:nonzero;"/>
                </g>
                <g transform="matrix(1,0,0,1,337.93,528.183)">
                    <path d="M0,244.817C22.353,187.103 33.889,129.829 35.81,83.508C30.765,84.088 27.24,88.071 25.065,91.192C25.292,86.238 29.27,78.76 35.254,76.224C29.292,76.081 25.304,75.925 20.559,78.064C22.676,73.054 30.867,70.012 35.677,69.303C30.439,68.523 21.992,70.148 16.361,73.098C21.03,66.921 24.922,62.928 32.829,61.894C24.96,61.737 5.852,64.758 1.434,69.679C0.526,61.227 17.29,48.041 29.481,48.692C17.791,46.181 -7.638,57.348 -11.9,64.005C-11.319,51.781 10.907,36.495 23.883,33.908C16.864,30.535 0.013,36.645 -9.592,44.905C-8.045,31.185 13.026,16.721 36.395,25.067C29.241,18.074 8.697,14.739 1.822,18.97C6.038,9.32 28.463,9.064 37.219,15.991C35.399,10.289 27.375,2.168 18.755,5.424C25.374,-2.888 48.086,12.792 51.377,21.626C54.043,13.779 77.897,11.371 83.847,18.38C78.064,16.355 68.671,18.404 63.031,25.577C74.904,18.126 105.689,29.204 103.215,42.545C100.569,37.089 75.656,30.467 69.13,37.819C92.633,37.407 108.334,61.157 104.064,65.64C102.471,60.926 75.771,49.846 68.089,52.288C82.032,55.279 90.767,69.682 90.833,79.458C85.432,73.459 71.642,61.629 60.262,62.468C68.426,64.17 73.011,71.284 75.109,78.176C71.554,74.285 61.79,67.798 53.503,70.769C58.152,72.865 66.668,80.549 66.952,84.693C62.157,82.082 54.034,78.532 52.187,79.192C57.515,80.192 61.69,87.172 61.769,92.859C58.151,89.259 57.996,85.328 53.145,86.007C57.188,87.573 59.975,95.212 59.587,99.789C57.112,96.162 54.612,90.321 50.023,89.766C47.841,103.621 35.618,184.415 12.739,247.705" style="fill:rgb(24,29,25);fill-rule:nonzero;"/>
                </g>
                <g transform="matrix(1,0,0,1,841.633,479.973)">
                    <path d="M0,171.437C10.553,129.98 16.059,84.576 13.536,52.632C10.122,53.448 8.033,56.473 6.8,58.795C6.545,55.377 8.655,49.916 12.551,47.68C8.448,48.075 5.698,48.299 2.619,50.161C3.657,46.547 9.025,43.78 12.267,42.895C8.608,42.794 2.946,44.61 -0.673,47.101C2.019,42.475 4.358,39.413 9.698,38.047C4.286,38.592 -8.576,42.25 -11.2,45.993C-12.523,40.268 -2.113,29.83 6.306,29.265C-1.924,28.512 -18.447,38.284 -20.82,43.205C-21.435,34.769 -7.451,22.436 1.239,19.585C-3.857,17.853 -14.914,23.443 -20.82,29.907C-20.896,20.364 -7.636,8.692 9.091,12.481C3.603,8.276 -10.771,7.691 -15.138,11.164C-13.045,4.192 2.321,2.157 8.905,6.185C7.183,2.422 1.003,-2.484 -4.642,0.465C-0.79,-5.788 16.096,3.088 19.087,8.877C20.266,3.271 36.435,-0.358 41.098,3.957C36.962,3.047 30.687,5.233 27.412,10.622C34.941,4.524 56.984,9.574 56.392,18.934C54.125,15.409 36.48,12.931 32.611,18.517C48.705,16.285 61.449,31.28 58.891,34.711C57.406,31.608 38.166,26.219 33.097,28.532C42.913,29.428 50.101,38.587 50.957,45.29C46.753,41.621 36.31,34.647 28.57,36.166C34.313,36.657 38.049,41.159 40.061,45.714C37.299,43.339 30.061,39.697 24.621,42.423C27.984,43.476 34.465,48.042 35.004,50.863C31.497,49.468 25.629,47.706 24.416,48.312C28.155,48.557 31.599,53 32.125,56.895C29.344,54.726 28.911,52.041 25.639,52.909C28.542,53.648 31.088,58.659 31.202,61.832C29.203,59.548 27.003,55.748 23.808,55.747C23.46,65.436 20.291,131.898 9.839,177.225" style="fill:rgb(24,29,25);fill-rule:nonzero;"/>
                </g>
                <g transform="matrix(1,0,0,1,893.994,587.024)">
                    <path d="M0,206.53C0.965,154.486 10.211,106.225 23.458,69.553C27.201,71.61 28.677,75.833 29.377,78.954C30.776,75.026 30.06,67.938 26.208,64.059C30.895,65.845 34.049,66.993 37.063,70.169C37.009,65.594 31.601,60.619 28.082,58.536C32.408,59.596 38.466,63.55 41.912,67.638C40.242,61.343 38.483,56.997 32.657,53.675C38.833,56.057 52.747,64.49 54.621,69.727C58.017,63.436 49.163,47.835 39.465,44.462C49.364,46.228 65.607,63.014 66.807,69.553C70.245,59.852 57.807,40.878 48.527,34.735C55.066,34.343 66.239,44.462 71.088,53.949C74.25,42.776 62.449,24.81 41.601,23.87C49.396,20.703 66.45,24.645 70.456,30.126C70.245,21.271 52.869,13.935 43.847,16.542C47.079,12.681 55.91,8.913 61.584,14.192C59.077,5.614 36.405,10.593 31.032,16.423C31.454,9.466 13.649,0 6.787,3.562C11.934,3.826 18.593,8.411 20.702,15.79C13.83,6.211 -13.663,5.038 -15.981,16.212C-12.186,12.806 9.317,15.579 12.058,23.38C-6.108,15.579 -25.89,29.072 -23.993,33.921C-21.252,30.759 3.06,30.63 8.263,34.975C-3.543,32.867 -14.927,41.3 -18.09,48.889C-11.976,45.938 2.524,41.116 11.117,45.391C4.22,44.118 -1.614,48.197 -5.44,52.895C-1.435,50.997 8.232,49.055 13.737,54.005C9.451,54.157 0.376,57.429 -1.165,60.565C3.4,60.058 10.854,59.879 12.081,60.982C7.615,60.064 2.143,64.17 0.272,68.571C4.234,66.921 5.606,63.909 9.167,65.982C5.521,65.914 0.92,70.974 -0.235,74.661C2.846,72.625 6.651,68.873 10.401,69.902C7.69,81.382 -8.506,148.171 -10.836,204.724" style="fill:rgb(24,29,25);fill-rule:nonzero;"/>
                </g>
            </g>
            <g id="Layer1" transform="matrix(2.11039,0,0,2.63873,-932.197,-94.1637)">
                <g transform="matrix(1,0,0,1,521.176,203.776)">
                    <path d="M0,-11.159L0,-10.136C2.25,-10.508 8.5,-11.542 8.5,2.638L8.5,69.685C8.5,71.71 7.5,73.8 6,74.199L-8.75,78.127C-10.125,78.493 -11.25,76.927 -11.25,74.647L-11.25,4.785L-17.375,5.891L-17.375,76.248C-17.375,78.545 -18.5,80.724 -19.875,81.09L-34.625,85.018C-36,85.384 -37.125,83.762 -37.125,81.413L-37.125,-89.404C-37.125,-91.753 -36,-93.747 -34.625,-93.836L-19.875,-94.786C-18.5,-94.875 -17.375,-93.069 -17.375,-90.772L-17.375,-21.041L-11.25,-21.957L-11.25,-90.989C-11.25,-93.27 -10.125,-95.208 -8.75,-95.504L6,-96.455C7.375,-96.543 8.5,-94.793 8.5,-92.565L8.5,-26.733C8.5,-12.555 2.25,-11.528 0,-11.159" style="fill:white;fill-rule:nonzero;"/>
                </g>
                <g transform="matrix(1,0,0,1,557.049,192.006)">
                    <path d="M0,-5.083L6,-6.069L6,-61.902L0,-61.33L0,-5.083ZM17.5,-87.739C19.75,-87.884 25.875,-88.089 25.875,-75.755L25.875,67.326C25.875,69.414 24.75,71.422 23.375,71.787L8.5,75.749C7.125,76.115 6,74.664 6,72.524L6,18.831L0,20.002L0,74.093C0,76.249 -1.125,78.313 -2.5,78.679L-17.375,82.64C-18.75,83.006 -19.875,81.499 -19.875,79.29L-19.875,-71.277C-19.875,-85.129 -13.5,-85.741 -11.25,-85.886L17.5,-87.739Z" style="fill:white;fill-rule:nonzero;"/>
                </g>
                <g transform="matrix(1,0,0,1,623.423,143.506)">
                    <path d="M0,71.03L0,105.236C0,107.217 -1.125,109.136 -2.5,109.503L-17.375,113.465C-18.75,113.831 -19.875,112.467 -19.875,110.434L-19.875,75.32L-24.125,76.238C-26.375,76.723 -32.75,77.912 -32.75,64.946L-32.75,-36.52C-32.75,-38.587 -31.625,-40.351 -30.25,-40.439L-15.375,-41.398C-14,-41.487 -12.875,-39.911 -12.875,-37.897L-12.875,50.186L-6.875,49.077L-6.875,-37.949C-6.875,-39.948 -5.75,-41.656 -4.375,-41.745L10.5,-42.711C11.875,-42.801 13,-41.282 13.125,-39.345L13.125,55.816C13.125,68.02 6.75,69.573 4.5,70.059L0,71.03Z" style="fill:white;fill-rule:nonzero;"/>
                </g>
                <g transform="matrix(1,0,0,1,663.922,174.201)">
                    <path d="M0,-4.851L6,-5.837L6,-54.3L0,-53.727L0,-4.851ZM17.5,-76.824C19.75,-76.969 25.875,-77.2 25.875,-66.535L25.875,57.184C25.875,58.989 24.75,60.765 23.375,61.131L8.5,65.092C7.125,65.459 6,64.239 6,62.381L6,15.776L0,16.948L0,63.951C0,65.824 -1.125,67.656 -2.5,68.022L-17.375,71.984C-18.75,72.349 -19.875,71.074 -19.875,69.148L-19.875,-62.159C-19.875,-74.239 -13.5,-74.826 -11.25,-74.971L17.5,-76.824Z" style="fill:white;fill-rule:nonzero;"/>
                </g>
                <g transform="matrix(1,0,0,1,734.671,168.208)">
                    <path d="M0,-10.645L0,-9.878C2.25,-10.25 8.5,-11.284 8.5,-0.696L8.5,49.37C8.5,50.883 7.5,52.51 6,52.909L-8.75,56.838C-10.125,57.204 -11.25,56.1 -11.25,54.384L-11.25,1.811L-17.375,2.916L-17.375,55.985C-17.375,57.718 -18.5,59.435 -19.875,59.801L-34.625,63.729C-36,64.095 -37.125,62.935 -37.125,61.15L-37.125,-68.626C-37.125,-70.411 -36,-71.943 -34.625,-72.032L-19.875,-72.983C-18.5,-73.071 -17.375,-71.727 -17.375,-69.995L-17.375,-17.398L-11.25,-18.314L-11.25,-70.263C-11.25,-71.979 -10.125,-73.456 -8.75,-73.7L6,-74.651C7.375,-74.74 8.5,-73.451 8.5,-71.787L8.5,-22.628C8.5,-12.041 2.25,-11.014 0,-10.645" style="fill:white;fill-rule:nonzero;"/>
                </g>
                <g transform="matrix(1,0,0,1,753.169,139.205)">
                    <path d="M0,24.253C-1.375,24.498 -2.5,23.354 -2.5,21.71L-2.5,8.409C-2.5,6.765 -1.375,5.253 0,5.05L34.5,-0.042C35.875,-0.245 37,0.849 37,2.388L37,14.845C37,16.385 35.875,17.845 34.5,18.091L0,24.253Z" style="fill:white;fill-rule:nonzero;"/>
                </g>
                <g transform="matrix(1,0,0,1,823.543,187.617)">
                    <path d="M0,-82.381L-6,-81.808L-6,-4.178L0,-5.59L0,-82.381ZM-25.875,-88.062C-25.875,-97.457 -19.75,-98.129 -17.375,-98.281L11.375,-100.135C13.625,-100.28 20,-100.564 20,-91.791L20,-2.795C20,5.977 13.625,7.803 11.375,8.402L-17.25,16.025C-19.5,16.624 -25.875,18.183 -25.875,8.651L-25.875,-88.062Z" style="fill:white;fill-rule:nonzero;"/>
                </g>
                <g transform="matrix(1,0,0,1,853.541,124.391)">
                    <path d="M0,21.14C-1.375,21.386 -2.5,20.458 -2.5,19.08L-2.5,7.925C-2.5,6.546 -1.375,5.252 0,5.049L34.5,-0.044C35.875,-0.246 37,0.63 37,1.904L37,12.215C37,13.489 35.875,14.732 34.5,14.978L0,21.14Z" style="fill:white;fill-rule:nonzero;"/>
                </g>
                <g transform="matrix(1,0,0,1,917.915,138.428)">
                    <path d="M0,-17.398L6,-18.298L6,-42.774L0,-42.202L0,-17.398ZM26.125,-21.832C26.125,-14.623 19.625,-13.546 17.375,-13.173L17.375,-12.648C19.625,-13.023 25.875,-14.066 25.875,-6.853L25.875,26.536C25.875,27.669 24.75,28.896 23.375,29.262L8.5,33.224C7.125,33.59 6,32.919 6,31.733L6,-4.497L0,-3.412L0,33.302C0,34.504 -1.125,35.787 -2.5,36.153L-17.375,40.114C-18.75,40.48 -19.875,39.754 -19.875,38.499L-19.875,-52.735C-19.875,-53.989 -18.75,-55.088 -17.375,-55.177L17.5,-57.425C19.75,-57.57 26.125,-57.878 26.125,-50.772L26.125,-21.832Z" style="fill:white;fill-rule:nonzero;"/>
                </g>
                <g transform="matrix(1,0,0,1,971.414,122.977)">
                    <path d="M0,-4.187L6,-5.174L6,-32.43L0,-31.857L0,-4.187ZM17.5,-45.422C19.75,-45.567 25.875,-45.872 25.875,-40.009L25.875,27.997C25.875,28.989 24.75,30.1 23.375,30.466L8.5,34.428C7.125,34.794 6,34.239 6,33.194L6,6.982L0,8.154L0,34.763C0,35.824 -1.125,36.991 -2.5,37.357L-17.375,41.318C-18.75,41.685 -19.875,41.074 -19.875,39.96L-19.875,-35.93C-19.875,-42.912 -13.5,-43.424 -11.25,-43.569L17.5,-45.422Z" style="fill:white;fill-rule:nonzero;"/>
                </g>
                <g transform="matrix(1,0,0,1,1031.41,147.496)">
                    <path d="M0,-72.682C8.75,-73.246 8.75,-69.251 8.75,-67.813L9.375,-67.864C9.375,-69.299 9.375,-73.286 18.125,-73.85L36.375,-75.027C38.625,-75.172 45.25,-75.599 45.25,-70.62L45.25,-17.28C45.25,-16.498 44.125,-15.558 42.75,-15.192L28,-11.264C26.625,-10.898 25.5,-11.281 25.5,-12.116L25.5,-64.539L19.375,-63.954L19.375,-10.514C19.375,-9.663 18.25,-8.667 16.875,-8.301L2,-4.34C0.625,-3.974 -0.5,-4.413 -0.5,-5.316L-0.5,-62.057L-6.5,-61.484L-6.5,-3.747C-6.5,-2.828 -7.625,-1.776 -9,-1.41L-23.875,2.551C-25.25,2.917 -26.375,2.422 -26.375,1.45L-26.375,-64.799C-26.375,-70.982 -19.875,-71.401 -17.625,-71.546L0,-72.682Z" style="fill:white;fill-rule:nonzero;"/>
                </g>
                <g transform="matrix(1,0,0,1,1104.04,100.882)">
                    <path d="M0,-3.9L6,-4.886L6,-22.997L0,-22.424L0,-3.9ZM17.5,-31.878C19.75,-32.023 25.875,-32.359 25.875,-28.568L25.875,15.409C25.875,16.05 24.75,16.875 23.375,17.241L8.5,21.203C7.125,21.569 6,21.3 6,20.606L6,3.19L0,4.362L0,22.175C0,22.885 -1.125,23.766 -2.5,24.132L-17.375,28.093C-18.75,28.459 -19.875,28.135 -19.875,27.373L-19.875,-24.616C-19.875,-29.399 -13.5,-29.879 -11.25,-30.025L17.5,-31.878Z" style="fill:white;fill-rule:nonzero;"/>
                </g>
                <g transform="matrix(1,0,0,1,1155.04,79.4489)">
                    <path d="M0,22.952C1.375,22.639 2.5,22.848 2.5,23.416L2.5,29.619C2.5,30.187 1.375,30.952 0,31.318L-14.875,35.28C-16.25,35.645 -17.375,35.437 -17.375,34.816L-17.375,28.04C-17.375,27.419 -16.25,26.655 -14.875,26.342L0,22.952ZM0,-12.604C1.375,-12.693 2.5,-12.3 2.5,-11.732L2.5,17.73C2.5,18.299 1.375,19.001 0,19.292L-14.875,22.431C-16.25,22.721 -17.375,22.451 -17.375,21.829L-17.375,-10.355C-17.375,-10.976 -16.25,-11.556 -14.875,-11.645L0,-12.604Z" style="fill:white;fill-rule:nonzero;"/>
                </g>
            </g>
        </g>
    </g>
    <defs>
        <radialGradient id="_Radial2" cx="0" cy="0" r="1" gradientUnits="userSpaceOnUse" gradientTransform="matrix(1,0,0,-1,0,-0.989575)"><stop offset="0" style="stop-color:rgb(255,238,156);stop-opacity:1"/><stop offset="0.19" style="stop-color:rgb(236,90,36);stop-opacity:1"/><stop offset="1" style="stop-color:rgb(61,66,124);stop-opacity:1"/></radialGradient>
        <linearGradient id="_Linear3" x1="0" y1="0" x2="1" y2="0" gradientUnits="userSpaceOnUse" gradientTransform="matrix(1,0,0,-1,0,-4.16816e-07)"><stop offset="0" style="stop-color:rgb(38,59,114);stop-opacity:1"/><stop offset="0.5" style="stop-color:rgb(38,59,114);stop-opacity:1"/><stop offset="0.65" style="stop-color:rgb(112,68,101);stop-opacity:1"/><stop offset="0.8" style="stop-color:rgb(216,102,76);stop-opacity:1"/><stop offset="1" style="stop-color:rgb(216,102,76);stop-opacity:1"/></linearGradient>
    </defs>
</svg>
