<?xml version="1.0" encoding="UTF-8" standalone="no"?>
<!DOCTYPE svg PUBLIC "-//W3C//DTD SVG 1.1//EN" "http://www.w3.org/Graphics/SVG/1.1/DTD/svg11.dtd">
<svg width="100%" height="100%" viewBox="0 0 362 102" version="1.1" xmlns="http://www.w3.org/2000/svg" xmlns:xlink="http://www.w3.org/1999/xlink" xml:space="preserve" xmlns:serif="http://www.serif.com/" style="fill-rule:evenodd;clip-rule:evenodd;stroke-linejoin:round;stroke-miterlimit:1.41421;">
    <g id="Artboard1" transform="matrix(0.517143,0,0,0.85,0,0)">
        <rect x="0" y="0" width="700" height="120" style="fill:none;"/>
        <g id="Logo" transform="matrix(1.16022,0,0,0.705882,98.6188,60)">
            <g transform="matrix(1,0,0,1,-100,-100)">
                <g transform="matrix(0.853505,3.46945e-18,-3.46945e-18,0.853505,10.3729,21.679)">
                    <path d="M105.623,-3.241L106.235,-3.235L106.846,-3.226L107.456,-3.212L108.065,-3.195L108.673,-3.173L109.281,-3.148L109.887,-3.12L110.493,-3.087L111.097,-3.05L111.701,-3.01L112.304,-2.966L112.906,-2.918L113.507,-2.867L114.107,-2.812L114.706,-2.753L115.303,-2.69L115.9,-2.623L116.496,-2.553L117.091,-2.48L117.684,-2.402L118.277,-2.321L118.868,-2.236L119.458,-2.148L120.047,-2.056L120.635,-1.96L121.222,-1.861L121.808,-1.758L122.392,-1.652L122.975,-1.542L123.557,-1.428L124.138,-1.311L124.718,-1.191L125.296,-1.066L125.873,-0.939L126.448,-0.808L127.023,-0.673L127.596,-0.535L128.167,-0.394L128.738,-0.249L129.307,-0.1L129.874,0.052L130.44,0.207L131.005,0.366L131.568,0.528L132.13,0.693L132.691,0.862L133.25,1.034L133.807,1.209L134.363,1.388L134.918,1.57L135.471,1.756L136.023,1.945L136.573,2.136L137.121,2.332L137.668,2.53L138.213,2.732L138.757,2.937L139.299,3.145L139.84,3.357L140.379,3.571L140.916,3.789L141.452,4.01L141.986,4.234L142.518,4.461L143.049,4.692L143.578,4.925L144.105,5.162L144.631,5.401L145.154,5.644L145.676,5.89L146.197,6.139L146.715,6.391L147.232,6.646L147.747,6.904L148.26,7.165L148.771,7.429L149.281,7.696L149.789,7.966L150.295,8.239L150.799,8.515L151.301,8.794L151.801,9.075L152.299,9.36L152.796,9.648L153.29,9.938L153.783,10.232L154.273,10.528L154.762,10.827L155.249,11.129L155.734,11.434L156.216,11.741L156.697,12.052L157.176,12.365L157.653,12.681L158.127,13L158.6,13.321L159.071,13.645L159.539,13.972L160.006,14.302L160.47,14.635L160.932,14.97L161.393,15.308L161.851,15.648L162.307,15.991L162.76,16.337L163.212,16.686L163.662,17.037L164.109,17.39L164.554,17.747L164.997,18.106L165.438,18.467L165.876,18.832L166.312,19.198L166.746,19.567L167.178,19.939L167.607,20.314L168.035,20.69L168.46,21.07L168.882,21.452L169.303,21.836L169.721,22.223L170.136,22.612L170.55,23.004L170.961,23.398L171.369,23.795L171.775,24.194L172.179,24.595L172.581,24.999L172.98,25.405L173.376,25.814L173.771,26.225L174.162,26.638L174.552,27.054L174.938,27.472L175.323,27.892L175.705,28.315L176.084,28.74L176.461,29.167L176.835,29.597L177.207,30.028L177.576,30.462L177.943,30.899L178.307,31.337L178.669,31.778L179.028,32.221L179.384,32.666L179.738,33.113L180.089,33.562L180.438,34.014L180.783,34.468L181.127,34.924L181.467,35.382L181.805,35.842L182.14,36.304L182.473,36.769L182.802,37.235L183.129,37.704L183.453,38.174L183.775,38.647L184.094,39.122L184.41,39.599L184.723,40.077L185.033,40.558L185.341,41.041L185.646,41.526L185.948,42.012L186.247,42.501L186.543,42.992L186.836,43.484L187.127,43.979L187.414,44.475L187.699,44.974L187.981,45.474L188.26,45.976L188.536,46.48L188.809,46.986L189.079,47.494L189.346,48.003L189.61,48.514L189.871,49.028L190.129,49.543L190.384,50.059L190.636,50.578L190.885,51.098L191.13,51.62L191.373,52.144L191.613,52.669L191.849,53.197L192.083,53.726L192.313,54.257L192.541,54.789L192.765,55.323L192.986,55.858L193.203,56.396L193.418,56.935L193.629,57.475L193.838,58.017L194.043,58.561L194.244,59.107L194.443,59.653L194.638,60.202L194.83,60.752L195.019,61.303L195.204,61.857L195.386,62.411L195.565,62.967L195.741,63.525L195.913,64.084L196.081,64.644L196.247,65.206L196.409,65.77L196.568,66.334L196.723,66.901L196.875,67.468L197.023,68.037L197.168,68.607L197.31,69.179L197.448,69.752L197.582,70.326L197.713,70.902L197.841,71.479L197.965,72.057L198.086,72.636L198.203,73.217L198.316,73.799L198.426,74.382L198.533,74.967L198.636,75.552L198.735,76.139L198.83,76.727L198.922,77.316L199.011,77.906L199.096,78.498L199.177,79.09L199.254,79.684L199.328,80.279L199.398,80.874L199.464,81.471L199.527,82.069L199.586,82.668L199.641,83.268L199.693,83.869L199.741,84.471L199.785,85.073L199.825,85.677L199.861,86.282L199.894,86.888L199.923,87.494L199.948,88.102L199.969,88.71L199.987,89.319L200,89.929L200.01,90.54L200.016,91.151L200.018,91.764L200.016,92.377L200.01,92.988L200,93.599L199.987,94.209L199.969,94.818L199.948,95.426L199.923,96.034L199.894,96.64L199.861,97.246L199.825,97.851L199.785,98.455L199.741,99.057L199.693,99.659L199.641,100.26L199.586,100.86L199.527,101.459L199.464,102.057L199.398,102.654L199.328,103.249L199.254,103.844L199.177,104.437L199.096,105.03L199.011,105.622L198.922,106.212L198.83,106.801L198.735,107.389L198.636,107.976L198.533,108.561L198.426,109.146L198.316,109.729L198.203,110.311L198.086,110.891L197.965,111.471L197.841,112.049L197.713,112.626L197.582,113.202L197.448,113.776L197.31,114.349L197.168,114.921L197.023,115.491L196.875,116.06L196.723,116.627L196.568,117.194L196.409,117.758L196.247,118.322L196.081,118.884L195.913,119.444L195.741,120.003L195.565,120.561L195.386,121.117L195.204,121.671L195.019,122.225L194.83,122.776L194.638,123.326L194.443,123.874L194.244,124.421L194.043,124.967L193.838,125.511L193.629,126.053L193.418,126.593L193.203,127.132L192.986,127.67L192.765,128.205L192.541,128.739L192.313,129.271L192.083,129.802L191.849,130.331L191.613,130.858L191.373,131.384L191.13,131.908L190.885,132.43L190.636,132.95L190.384,133.468L190.129,133.985L189.871,134.5L189.61,135.013L189.346,135.525L189.079,136.034L188.809,136.542L188.536,137.048L188.26,137.552L187.981,138.054L187.699,138.554L187.414,139.052L187.127,139.549L186.836,140.044L186.543,140.536L186.247,141.027L185.948,141.516L185.646,142.002L185.341,142.487L185.033,142.97L184.723,143.451L184.41,143.929L184.094,144.406L183.775,144.881L183.453,145.353L183.129,145.824L182.802,146.292L182.473,146.759L182.14,147.223L181.805,147.686L181.467,148.146L181.127,148.604L180.783,149.06L180.438,149.514L180.089,149.965L179.738,150.415L179.384,150.862L179.028,151.307L178.669,151.75L178.307,152.191L177.943,152.629L177.576,153.066L177.207,153.5L176.835,153.931L176.461,154.361L176.084,154.788L175.705,155.213L175.323,155.636L174.938,156.056L174.552,156.474L174.162,156.89L173.771,157.303L173.376,157.714L172.98,158.122L172.581,158.529L172.179,158.933L171.775,159.334L171.369,159.733L170.961,160.13L170.55,160.524L170.136,160.916L169.721,161.305L169.303,161.692L168.882,162.076L168.46,162.458L168.035,162.837L167.608,163.214L167.178,163.589L166.746,163.961L166.312,164.33L165.876,164.696L165.437,165.061L164.997,165.422L164.554,165.781L164.109,166.138L163.662,166.491L163.212,166.842L162.76,167.191L162.307,167.537L161.851,167.88L161.393,168.22L160.932,168.558L160.47,168.893L160.006,169.226L159.539,169.556L159.071,169.883L158.6,170.207L158.127,170.528L157.653,170.847L157.176,171.163L156.697,171.476L156.216,171.787L155.734,172.094L155.249,172.399L154.762,172.701L154.273,173L153.783,173.296L153.29,173.59L152.796,173.88L152.299,174.168L151.801,174.453L151.301,174.734L150.799,175.013L150.295,175.289L149.789,175.562L149.281,175.832L148.772,176.099L148.26,176.363L147.747,176.624L147.232,176.882L146.715,177.137L146.197,177.389L145.676,177.638L145.154,177.884L144.631,178.127L144.105,178.366L143.578,178.603L143.049,178.836L142.518,179.067L141.986,179.294L141.452,179.518L140.916,179.739L140.379,179.957L139.84,180.171L139.299,180.383L138.757,180.591L138.213,180.796L137.668,180.998L137.121,181.196L136.573,181.391L136.023,181.583L135.471,181.772L134.918,181.958L134.363,182.14L133.807,182.318L133.25,182.494L132.691,182.666L132.13,182.835L131.568,183L131.005,183.162L130.44,183.321L129.874,183.476L129.307,183.628L128.737,183.776L128.167,183.921L127.596,184.063L127.022,184.201L126.448,184.336L125.873,184.467L125.296,184.594L124.718,184.719L124.138,184.839L123.557,184.956L122.975,185.07L122.392,185.18L121.808,185.286L121.222,185.389L120.635,185.488L120.047,185.584L119.458,185.676L118.868,185.764L118.277,185.849L117.684,185.93L117.091,186.008L116.496,186.081L115.9,186.151L115.303,186.218L114.706,186.281L114.107,186.34L113.507,186.395L112.906,186.446L112.304,186.494L111.701,186.538L111.098,186.578L110.493,186.615L109.887,186.647L109.281,186.676L108.673,186.701L108.065,186.723L107.456,186.74L106.846,186.753L106.235,186.763L105.623,186.769L105.011,186.771L104.398,186.769L103.786,186.763L103.176,186.753L102.566,186.74L101.957,186.723L101.348,186.701L100.741,186.676L100.134,186.647L99.529,186.615L98.924,186.578L98.32,186.538L97.717,186.494L97.115,186.446L96.515,186.395L95.915,186.34L95.316,186.281L94.718,186.218L94.121,186.151L93.525,186.081L92.931,186.008L92.337,185.93L91.744,185.849L91.153,185.764L90.563,185.676L89.974,185.584L89.386,185.488L88.799,185.389L88.213,185.286L87.629,185.18L87.046,185.07L86.464,184.956L85.883,184.839L85.304,184.719L84.726,184.594L84.148,184.467L83.573,184.336L82.999,184.201L82.425,184.063L81.854,183.921L81.284,183.776L80.715,183.628L80.147,183.476L79.581,183.321L79.016,183.162L78.453,183L77.891,182.835L77.33,182.666L76.771,182.494L76.214,182.318L75.658,182.14L75.103,181.958L74.55,181.772L73.998,181.583L73.448,181.391L72.9,181.196L72.353,180.998L71.808,180.796L71.264,180.591L70.722,180.383L70.181,180.171L69.642,179.957L69.105,179.739L68.569,179.518L68.035,179.294L67.503,179.067L66.972,178.836L66.443,178.603L65.916,178.366L65.391,178.127L64.867,177.884L64.345,177.638L63.824,177.389L63.306,177.137L62.789,176.882L62.274,176.624L61.761,176.363L61.25,176.099L60.74,175.832L60.232,175.562L59.727,175.289L59.223,175.013L58.721,174.734L58.22,174.453L57.722,174.168L57.225,173.88L56.731,173.59L56.239,173.296L55.748,173L55.259,172.701L54.772,172.399L54.288,172.094L53.805,171.787L53.324,171.476L52.845,171.163L52.369,170.847L51.894,170.528L51.421,170.207L50.951,169.883L50.482,169.556L50.016,169.226L49.551,168.893L49.089,168.558L48.629,168.22L48.171,167.88L47.715,167.537L47.261,167.191L46.809,166.842L46.36,166.491L45.912,166.137L45.467,165.781L45.024,165.422L44.584,165.061L44.145,164.696L43.709,164.33L43.275,163.961L42.843,163.589L42.414,163.214L41.986,162.837L41.562,162.458L41.139,162.076L40.719,161.692L40.301,161.305L39.885,160.916L39.471,160.524L39.061,160.13L38.652,159.733L38.246,159.334L37.842,158.933L37.44,158.529L37.041,158.122L36.645,157.714L36.251,157.303L35.859,156.89L35.47,156.474L35.083,156.056L34.698,155.636L34.316,155.213L33.937,154.788L33.56,154.361L33.186,153.931L32.814,153.5L32.445,153.066L32.078,152.629L31.714,152.191L31.352,151.75L30.993,151.307L30.637,150.862L30.283,150.415L29.932,149.965L29.584,149.514L29.238,149.06L28.895,148.604L28.554,148.146L28.216,147.686L27.881,147.223L27.549,146.759L27.219,146.293L26.892,145.824L26.568,145.353L26.246,144.881L25.927,144.406L25.611,143.929L25.298,143.45L24.988,142.97L24.68,142.487L24.376,142.002L24.074,141.515L23.774,141.027L23.478,140.536L23.185,140.044L22.894,139.549L22.607,139.053L22.322,138.554L22.04,138.054L21.761,137.552L21.486,137.048L21.213,136.542L20.943,136.034L20.676,135.525L20.412,135.013L20.151,134.5L19.893,133.985L19.638,133.469L19.386,132.95L19.137,132.43L18.891,131.908L18.648,131.384L18.408,130.858L18.172,130.331L17.938,129.802L17.708,129.272L17.481,128.739L17.257,128.205L17.036,127.67L16.818,127.132L16.603,126.593L16.392,126.053L16.184,125.511L15.979,124.967L15.777,124.421L15.578,123.875L15.383,123.326L15.191,122.776L15.002,122.225L14.817,121.671L14.635,121.117L14.456,120.561L14.281,120.003L14.109,119.444L13.94,118.884L13.774,118.322L13.612,117.758L13.454,117.194L13.298,116.627L13.147,116.06L12.998,115.491L12.853,114.921L12.712,114.349L12.573,113.776L12.439,113.202L12.308,112.626L12.18,112.049L12.056,111.471L11.935,110.891L11.818,110.311L11.705,109.729L11.595,109.146L11.488,108.561L11.386,107.976L11.286,107.389L11.191,106.801L11.099,106.212L11.01,105.621L10.926,105.03L10.844,104.438L10.767,103.844L10.693,103.249L10.623,102.654L10.557,102.057L10.494,101.459L10.435,100.86L10.38,100.26L10.328,99.659L10.28,99.057L10.236,98.455L10.196,97.851L10.16,97.246L10.127,96.64L10.098,96.034L10.073,95.426L10.052,94.818L10.035,94.209L10.021,93.599L10.011,92.988L10.006,92.376L10.004,91.764L10.006,91.152L10.011,90.54L10.021,89.929L10.035,89.319L10.052,88.71L10.073,88.101L10.098,87.494L10.127,86.888L10.16,86.282L10.196,85.677L10.236,85.073L10.28,84.471L10.328,83.869L10.38,83.268L10.435,82.668L10.494,82.069L10.557,81.471L10.623,80.874L10.693,80.279L10.767,79.684L10.844,79.09L10.926,78.498L11.01,77.906L11.099,77.316L11.191,76.727L11.286,76.139L11.386,75.552L11.488,74.967L11.595,74.382L11.705,73.799L11.818,73.217L11.935,72.636L12.056,72.057L12.18,71.479L12.308,70.902L12.439,70.326L12.573,69.752L12.712,69.179L12.853,68.607L12.998,68.037L13.147,67.468L13.298,66.9L13.454,66.334L13.612,65.77L13.774,65.206L13.94,64.644L14.108,64.084L14.281,63.525L14.456,62.967L14.635,62.411L14.817,61.857L15.002,61.303L15.191,60.752L15.383,60.202L15.578,59.653L15.777,59.106L15.979,58.561L16.184,58.017L16.392,57.475L16.603,56.935L16.818,56.396L17.036,55.858L17.257,55.323L17.481,54.789L17.708,54.256L17.938,53.726L18.172,53.197L18.408,52.67L18.648,52.144L18.891,51.62L19.137,51.098L19.386,50.578L19.638,50.059L19.893,49.543L20.151,49.028L20.412,48.514L20.676,48.003L20.943,47.494L21.213,46.986L21.486,46.48L21.761,45.976L22.04,45.474L22.322,44.974L22.607,44.475L22.894,43.979L23.185,43.484L23.478,42.992L23.774,42.501L24.074,42.012L24.376,41.526L24.68,41.041L24.988,40.558L25.298,40.077L25.611,39.599L25.927,39.122L26.246,38.647L26.568,38.175L26.892,37.704L27.219,37.235L27.549,36.769L27.881,36.304L28.216,35.842L28.554,35.382L28.895,34.924L29.238,34.468L29.584,34.014L29.932,33.563L30.283,33.113L30.637,32.666L30.993,32.221L31.352,31.778L31.714,31.337L32.078,30.899L32.445,30.462L32.814,30.028L33.186,29.597L33.56,29.167L33.937,28.74L34.316,28.315L34.698,27.892L35.083,27.472L35.47,27.054L35.859,26.638L36.251,26.225L36.645,25.814L37.041,25.405L37.44,24.999L37.842,24.595L38.246,24.194L38.652,23.795L39.061,23.398L39.472,23.004L39.885,22.612L40.301,22.223L40.719,21.836L41.139,21.452L41.562,21.07L41.986,20.69L42.414,20.314L42.843,19.939L43.275,19.567L43.709,19.198L44.145,18.832L44.584,18.467L45.024,18.106L45.467,17.747L45.912,17.39L46.36,17.037L46.809,16.686L47.261,16.337L47.715,15.991L48.171,15.648L48.629,15.308L49.089,14.97L49.551,14.635L50.016,14.302L50.482,13.972L50.951,13.645L51.421,13.321L51.894,13L52.369,12.681L52.845,12.365L53.324,12.052L53.805,11.741L54.288,11.434L54.772,11.129L55.259,10.827L55.748,10.528L56.238,10.232L56.731,9.938L57.226,9.648L57.722,9.36L58.22,9.075L58.721,8.794L59.223,8.515L59.727,8.239L60.232,7.966L60.74,7.696L61.25,7.429L61.761,7.165L62.274,6.904L62.789,6.646L63.306,6.391L63.824,6.139L64.345,5.89L64.867,5.644L65.391,5.401L65.916,5.162L66.443,4.925L66.972,4.692L67.503,4.461L68.035,4.234L68.569,4.01L69.105,3.789L69.642,3.571L70.181,3.357L70.722,3.145L71.264,2.937L71.808,2.732L72.353,2.53L72.9,2.332L73.448,2.137L73.999,1.945L74.55,1.756L75.103,1.57L75.658,1.388L76.214,1.209L76.771,1.034L77.33,0.862L77.891,0.693L78.453,0.528L79.016,0.366L79.581,0.207L80.147,0.052L80.715,-0.1L81.284,-0.249L81.854,-0.394L82.426,-0.535L82.999,-0.673L83.573,-0.808L84.149,-0.939L84.725,-1.066L85.304,-1.191L85.883,-1.311L86.464,-1.428L87.046,-1.542L87.629,-1.652L88.213,-1.758L88.799,-1.861L89.386,-1.96L89.974,-2.056L90.563,-2.148L91.153,-2.236L91.745,-2.321L92.337,-2.402L92.931,-2.48L93.525,-2.553L94.121,-2.623L94.718,-2.69L95.316,-2.753L95.915,-2.812L96.514,-2.867L97.115,-2.918L97.717,-2.966L98.32,-3.01L98.924,-3.05L99.528,-3.087L100.134,-3.12L100.741,-3.148L101.348,-3.173L101.956,-3.195L102.566,-3.212L103.176,-3.226L103.786,-3.235L104.398,-3.241L105.011,-3.243L105.623,-3.241ZM104.48,9.709L103.951,9.714L103.422,9.723L102.894,9.734L102.367,9.749L101.841,9.768L101.315,9.789L100.791,9.814L100.267,9.843L99.744,9.874L99.222,9.909L98.701,9.947L98.181,9.988L97.662,10.033L97.143,10.08L96.626,10.131L96.109,10.186L95.594,10.243L95.079,10.304L94.566,10.367L94.053,10.434L93.541,10.504L93.031,10.577L92.521,10.654L92.013,10.733L91.505,10.816L90.999,10.901L90.493,10.99L89.989,11.082L89.485,11.177L88.983,11.275L88.482,11.376L87.982,11.48L87.483,11.587L86.985,11.697L86.489,11.81L85.993,11.926L85.499,12.045L85.006,12.168L84.514,12.293L84.023,12.421L83.533,12.552L83.045,12.686L82.557,12.823L82.071,12.962L81.587,13.105L81.103,13.251L80.621,13.399L80.14,13.551L79.66,13.705L79.182,13.862L78.704,14.022L78.229,14.185L77.754,14.35L77.281,14.519L76.809,14.69L76.338,14.864L75.869,15.041L75.401,15.221L74.935,15.403L74.47,15.588L74.006,15.776L73.544,15.967L73.083,16.16L72.624,16.356L72.166,16.555L71.709,16.757L71.254,16.961L70.801,17.168L70.349,17.377L69.898,17.589L69.449,17.804L69.001,18.022L68.555,18.242L68.111,18.465L67.668,18.69L67.226,18.918L66.786,19.149L66.348,19.382L65.911,19.617L65.476,19.856L65.042,20.096L64.61,20.34L64.18,20.586L63.751,20.834L63.324,21.085L62.899,21.338L62.475,21.594L62.053,21.852L61.632,22.113L61.213,22.377L60.796,22.642L60.381,22.91L59.967,23.181L59.556,23.454L59.145,23.729L58.737,24.007L58.33,24.287L57.925,24.57L57.522,24.855L57.121,25.142L56.721,25.432L56.324,25.724L55.928,26.018L55.534,26.315L55.142,26.614L54.751,26.915L54.363,27.218L53.976,27.524L53.591,27.832L53.209,28.142L52.828,28.455L52.449,28.77L52.071,29.087L51.696,29.406L51.323,29.727L50.952,30.051L50.582,30.377L50.215,30.705L49.85,31.035L49.486,31.367L49.125,31.702L48.766,32.038L48.408,32.377L48.053,32.718L47.7,33.061L47.348,33.406L46.999,33.753L46.652,34.102L46.307,34.453L45.964,34.806L45.623,35.162L45.285,35.519L44.948,35.878L44.614,36.24L44.282,36.603L43.951,36.968L43.623,37.336L43.298,37.705L42.974,38.076L42.653,38.45L42.333,38.825L42.016,39.202L41.702,39.581L41.389,39.962L41.079,40.345L40.771,40.73L40.465,41.116L40.161,41.505L39.86,41.895L39.561,42.287L39.265,42.681L38.97,43.077L38.678,43.475L38.389,43.874L38.102,44.276L37.817,44.679L37.534,45.084L37.254,45.49L36.976,45.899L36.701,46.309L36.428,46.721L36.157,47.134L35.889,47.55L35.623,47.967L35.36,48.386L35.099,48.806L34.841,49.228L34.585,49.652L34.331,50.077L34.081,50.505L33.832,50.933L33.586,51.364L33.343,51.796L33.102,52.229L32.864,52.664L32.628,53.101L32.395,53.54L32.165,53.979L31.937,54.421L31.711,54.864L31.489,55.309L31.268,55.755L31.051,56.202L30.836,56.651L30.624,57.102L30.414,57.554L30.207,58.008L30.003,58.463L29.802,58.919L29.603,59.377L29.407,59.837L29.213,60.297L29.023,60.76L28.835,61.223L28.65,61.688L28.467,62.155L28.288,62.623L28.111,63.092L27.937,63.562L27.765,64.034L27.597,64.507L27.431,64.982L27.268,65.458L27.109,65.935L26.951,66.413L26.797,66.893L26.646,67.374L26.497,67.856L26.352,68.34L26.209,68.825L26.069,69.311L25.932,69.798L25.798,70.286L25.667,70.776L25.539,71.267L25.414,71.759L25.292,72.252L25.173,72.746L25.057,73.242L24.944,73.739L24.834,74.236L24.726,74.735L24.622,75.235L24.521,75.737L24.423,76.239L24.329,76.742L24.237,77.246L24.148,77.752L24.062,78.258L23.98,78.766L23.9,79.275L23.824,79.784L23.751,80.295L23.681,80.806L23.614,81.319L23.55,81.833L23.49,82.347L23.432,82.863L23.378,83.379L23.327,83.897L23.279,84.415L23.235,84.934L23.194,85.454L23.156,85.975L23.121,86.497L23.089,87.02L23.061,87.544L23.036,88.069L23.014,88.594L22.996,89.12L22.981,89.647L22.969,90.175L22.961,90.704L22.956,91.234L22.954,91.764L22.956,92.294L22.961,92.824L22.969,93.353L22.981,93.881L22.996,94.408L23.014,94.934L23.036,95.459L23.061,95.984L23.089,96.508L23.121,97.03L23.156,97.552L23.194,98.074L23.235,98.594L23.279,99.113L23.327,99.631L23.378,100.149L23.432,100.665L23.49,101.181L23.55,101.695L23.614,102.209L23.681,102.722L23.751,103.233L23.824,103.744L23.9,104.253L23.98,104.762L24.062,105.269L24.148,105.776L24.237,106.281L24.329,106.786L24.423,107.289L24.521,107.791L24.622,108.293L24.726,108.793L24.834,109.291L24.944,109.789L25.057,110.286L25.173,110.781L25.292,111.276L25.414,111.769L25.539,112.261L25.667,112.752L25.798,113.242L25.932,113.73L26.069,114.217L26.209,114.703L26.352,115.188L26.497,115.672L26.646,116.154L26.797,116.635L26.951,117.115L27.109,117.593L27.268,118.07L27.431,118.546L27.597,119.021L27.765,119.494L27.937,119.966L28.111,120.436L28.288,120.905L28.467,121.373L28.65,121.84L28.835,122.305L29.023,122.768L29.213,123.23L29.407,123.691L29.603,124.151L29.802,124.609L30.003,125.065L30.207,125.52L30.414,125.974L30.624,126.426L30.836,126.877L31.051,127.326L31.268,127.773L31.489,128.219L31.711,128.664L31.937,129.107L32.165,129.548L32.395,129.988L32.628,130.427L32.864,130.864L33.102,131.299L33.343,131.732L33.586,132.164L33.832,132.595L34.081,133.023L34.331,133.451L34.585,133.876L34.841,134.3L35.099,134.722L35.36,135.142L35.623,135.561L35.889,135.978L36.157,136.394L36.428,136.807L36.701,137.219L36.976,137.629L37.254,138.038L37.534,138.444L37.817,138.849L38.102,139.252L38.389,139.654L38.678,140.053L38.97,140.451L39.265,140.847L39.561,141.241L39.86,141.633L40.161,142.023L40.465,142.412L40.771,142.798L41.079,143.183L41.389,143.566L41.702,143.947L42.016,144.326L42.333,144.703L42.653,145.078L42.974,145.452L43.298,145.823L43.623,146.192L43.951,146.559L44.282,146.925L44.614,147.288L44.948,147.65L45.285,148.009L45.623,148.366L45.964,148.722L46.307,149.075L46.652,149.426L46.999,149.775L47.348,150.122L47.7,150.467L48.053,150.81L48.408,151.151L48.766,151.49L49.125,151.826L49.486,152.161L49.85,152.493L50.215,152.823L50.582,153.151L50.952,153.477L51.323,153.801L51.696,154.122L52.071,154.441L52.449,154.758L52.828,155.073L53.209,155.385L53.591,155.696L53.976,156.004L54.363,156.31L54.751,156.613L55.142,156.914L55.534,157.213L55.928,157.51L56.324,157.804L56.721,158.096L57.121,158.386L57.522,158.673L57.925,158.958L58.33,159.241L58.737,159.521L59.145,159.799L59.556,160.074L59.967,160.347L60.381,160.618L60.796,160.886L61.213,161.151L61.632,161.415L62.053,161.675L62.475,161.934L62.899,162.19L63.324,162.443L63.751,162.694L64.18,162.942L64.61,163.188L65.042,163.432L65.476,163.672L65.911,163.911L66.348,164.146L66.786,164.379L67.226,164.61L67.668,164.838L68.111,165.063L68.555,165.286L69.001,165.506L69.449,165.724L69.898,165.938L70.349,166.151L70.801,166.36L71.254,166.567L71.709,166.771L72.166,166.973L72.624,167.172L73.083,167.368L73.544,167.561L74.006,167.752L74.47,167.94L74.935,168.125L75.401,168.307L75.869,168.487L76.338,168.664L76.809,168.838L77.281,169.009L77.754,169.178L78.229,169.343L78.704,169.506L79.182,169.666L79.66,169.823L80.14,169.977L80.621,170.129L81.103,170.277L81.587,170.423L82.071,170.566L82.557,170.705L83.045,170.842L83.533,170.976L84.023,171.107L84.514,171.235L85.006,171.36L85.499,171.482L85.993,171.602L86.489,171.718L86.985,171.831L87.483,171.941L87.982,172.048L88.482,172.152L88.983,172.253L89.485,172.351L89.989,172.446L90.493,172.538L90.999,172.627L91.505,172.712L92.013,172.795L92.521,172.874L93.031,172.951L93.541,173.024L94.053,173.094L94.566,173.161L95.079,173.224L95.594,173.285L96.109,173.342L96.626,173.396L97.143,173.447L97.662,173.495L98.181,173.54L98.701,173.581L99.222,173.619L99.744,173.654L100.267,173.685L100.791,173.714L101.315,173.739L101.841,173.76L102.367,173.779L102.894,173.794L103.422,173.805L103.951,173.814L104.48,173.819L105.011,173.82L105.541,173.819L106.07,173.814L106.599,173.805L107.127,173.794L107.654,173.779L108.181,173.76L108.706,173.739L109.231,173.714L109.754,173.685L110.277,173.654L110.799,173.619L111.32,173.581L111.84,173.54L112.36,173.495L112.878,173.447L113.395,173.396L113.912,173.342L114.427,173.285L114.942,173.224L115.456,173.161L115.968,173.094L116.48,173.024L116.99,172.951L117.5,172.874L118.009,172.795L118.516,172.712L119.023,172.627L119.528,172.538L120.032,172.446L120.536,172.351L121.038,172.253L121.539,172.152L122.039,172.048L122.538,171.941L123.036,171.831L123.533,171.718L124.028,171.602L124.522,171.482L125.016,171.36L125.508,171.235L125.999,171.107L126.488,170.976L126.977,170.842L127.464,170.705L127.95,170.566L128.435,170.423L128.918,170.277L129.4,170.129L129.881,169.977L130.361,169.823L130.84,169.666L131.317,169.506L131.793,169.343L132.267,169.178L132.74,169.009L133.212,168.838L133.683,168.664L134.152,168.487L134.62,168.307L135.086,168.125L135.551,167.94L136.015,167.752L136.477,167.561L136.938,167.368L137.397,167.172L137.855,166.973L138.312,166.771L138.767,166.567L139.22,166.36L139.673,166.151L140.123,165.938L140.572,165.724L141.02,165.506L141.466,165.286L141.911,165.063L142.354,164.838L142.795,164.61L143.235,164.379L143.673,164.146L144.11,163.911L144.545,163.672L144.979,163.432L145.411,163.188L145.841,162.942L146.27,162.694L146.697,162.443L147.123,162.19L147.546,161.934L147.969,161.675L148.389,161.415L148.808,161.151L149.225,160.886L149.64,160.618L150.054,160.347L150.466,160.074L150.876,159.799L151.284,159.521L151.691,159.241L152.096,158.958L152.499,158.673L152.9,158.386L153.3,158.096L153.697,157.804L154.093,157.51L154.487,157.213L154.88,156.914L155.27,156.613L155.658,156.31L156.045,156.004L156.43,155.696L156.813,155.385L157.194,155.073L157.573,154.758L157.95,154.441L158.325,154.122L158.698,153.801L159.069,153.477L159.439,153.151L159.806,152.823L160.171,152.493L160.535,152.161L160.896,151.826L161.256,151.49L161.613,151.151L161.968,150.81L162.322,150.467L162.673,150.122L163.022,149.775L163.369,149.426L163.714,149.075L164.057,148.722L164.398,148.366L164.736,148.009L165.073,147.65L165.407,147.288L165.74,146.925L166.07,146.559L166.398,146.192L166.724,145.823L167.047,145.452L167.369,145.078L167.688,144.703L168.005,144.326L168.32,143.947L168.632,143.566L168.942,143.183L169.25,142.798L169.556,142.412L169.86,142.023L170.161,141.633L170.46,141.241L170.756,140.847L171.051,140.451L171.343,140.053L171.632,139.654L171.92,139.252L172.205,138.849L172.487,138.444L172.767,138.038L173.045,137.629L173.321,137.219L173.594,136.807L173.864,136.394L174.132,135.978L174.398,135.561L174.661,135.142L174.922,134.722L175.18,134.3L175.436,133.876L175.69,133.451L175.941,133.023L176.189,132.595L176.435,132.164L176.678,131.732L176.919,131.299L177.157,130.864L177.393,130.427L177.626,129.988L177.857,129.548L178.085,129.107L178.31,128.664L178.533,128.219L178.753,127.773L178.97,127.326L179.185,126.877L179.397,126.426L179.607,125.974L179.814,125.52L180.018,125.065L180.22,124.609L180.418,124.151L180.614,123.691L180.808,123.23L180.998,122.768L181.186,122.305L181.372,121.84L181.554,121.373L181.734,120.905L181.91,120.436L182.085,119.966L182.256,119.494L182.424,119.021L182.59,118.546L182.753,118.07L182.913,117.593L183.07,117.115L183.224,116.635L183.375,116.154L183.524,115.672L183.67,115.188L183.812,114.703L183.952,114.217L184.089,113.73L184.223,113.242L184.354,112.752L184.482,112.261L184.607,111.769L184.729,111.276L184.848,110.781L184.964,110.286L185.077,109.789L185.188,109.291L185.295,108.793L185.399,108.293L185.5,107.791L185.598,107.289L185.693,106.786L185.784,106.281L185.873,105.776L185.959,105.269L186.041,104.762L186.121,104.253L186.197,103.744L186.27,103.233L186.34,102.722L186.407,102.209L186.471,101.695L186.532,101.181L186.589,100.665L186.643,100.149L186.694,99.631L186.742,99.113L186.786,98.594L186.828,98.074L186.866,97.552L186.9,97.03L186.932,96.508L186.96,95.984L186.985,95.459L187.007,94.934L187.025,94.408L187.04,93.881L187.052,93.353L187.06,92.824L187.065,92.294L187.067,91.764L187.065,91.234L187.06,90.704L187.052,90.175L187.04,89.647L187.025,89.12L187.007,88.594L186.985,88.069L186.96,87.544L186.932,87.02L186.9,86.497L186.866,85.975L186.828,85.454L186.786,84.934L186.742,84.415L186.694,83.897L186.643,83.379L186.589,82.863L186.532,82.347L186.471,81.833L186.407,81.319L186.34,80.806L186.27,80.295L186.197,79.784L186.121,79.275L186.041,78.766L185.959,78.258L185.873,77.752L185.784,77.246L185.693,76.742L185.598,76.239L185.5,75.737L185.399,75.235L185.295,74.735L185.188,74.236L185.077,73.739L184.964,73.242L184.848,72.746L184.729,72.252L184.607,71.759L184.482,71.267L184.354,70.776L184.223,70.286L184.089,69.798L183.952,69.311L183.812,68.825L183.67,68.34L183.524,67.856L183.375,67.374L183.224,66.893L183.07,66.413L182.913,65.935L182.753,65.458L182.59,64.982L182.424,64.507L182.256,64.034L182.085,63.562L181.91,63.092L181.734,62.623L181.554,62.155L181.372,61.688L181.186,61.223L180.998,60.76L180.808,60.297L180.614,59.837L180.418,59.377L180.22,58.919L180.018,58.463L179.814,58.008L179.607,57.554L179.397,57.102L179.185,56.651L178.97,56.202L178.753,55.755L178.533,55.309L178.31,54.864L178.085,54.421L177.857,53.979L177.626,53.54L177.393,53.101L177.157,52.664L176.919,52.229L176.678,51.796L176.435,51.364L176.189,50.933L175.941,50.505L175.69,50.077L175.436,49.652L175.18,49.228L174.922,48.806L174.661,48.386L174.398,47.967L174.132,47.55L173.864,47.134L173.594,46.721L173.321,46.309L173.045,45.899L172.767,45.49L172.487,45.084L172.205,44.679L171.92,44.276L171.632,43.874L171.343,43.475L171.051,43.077L170.756,42.681L170.46,42.287L170.161,41.895L169.86,41.505L169.556,41.116L169.25,40.73L168.942,40.345L168.632,39.962L168.32,39.581L168.005,39.202L167.688,38.825L167.369,38.45L167.047,38.076L166.724,37.705L166.398,37.336L166.07,36.968L165.74,36.603L165.407,36.24L165.073,35.878L164.736,35.519L164.398,35.162L164.057,34.806L163.714,34.453L163.369,34.102L163.022,33.753L162.673,33.406L162.322,33.061L161.968,32.718L161.613,32.377L161.256,32.038L160.896,31.702L160.535,31.367L160.171,31.035L159.806,30.705L159.439,30.377L159.069,30.051L158.698,29.727L158.325,29.406L157.95,29.087L157.573,28.77L157.194,28.455L156.813,28.142L156.43,27.832L156.045,27.524L155.658,27.218L155.27,26.915L154.88,26.614L154.487,26.315L154.093,26.018L153.697,25.724L153.3,25.432L152.9,25.142L152.499,24.855L152.096,24.57L151.691,24.287L151.284,24.007L150.876,23.729L150.466,23.454L150.054,23.181L149.64,22.91L149.225,22.642L148.808,22.377L148.389,22.113L147.969,21.852L147.546,21.594L147.123,21.338L146.697,21.085L146.27,20.834L145.841,20.586L145.411,20.34L144.979,20.096L144.545,19.856L144.11,19.617L143.673,19.382L143.235,19.149L142.795,18.918L142.354,18.69L141.911,18.465L141.466,18.242L141.02,18.022L140.572,17.804L140.123,17.589L139.673,17.377L139.22,17.168L138.767,16.961L138.312,16.757L137.855,16.555L137.397,16.356L136.938,16.16L136.477,15.967L136.015,15.776L135.551,15.588L135.086,15.403L134.62,15.221L134.152,15.041L133.683,14.864L133.212,14.69L132.74,14.519L132.267,14.35L131.793,14.185L131.317,14.022L130.84,13.862L130.361,13.705L129.881,13.551L129.4,13.399L128.918,13.251L128.435,13.105L127.95,12.962L127.464,12.823L126.977,12.686L126.488,12.552L125.999,12.421L125.508,12.293L125.016,12.168L124.522,12.045L124.028,11.926L123.533,11.81L123.036,11.697L122.538,11.587L122.039,11.48L121.539,11.376L121.038,11.275L120.536,11.177L120.032,11.082L119.528,10.99L119.023,10.901L118.516,10.816L118.009,10.733L117.5,10.654L116.99,10.577L116.48,10.504L115.968,10.434L115.456,10.367L114.942,10.304L114.427,10.243L113.912,10.186L113.395,10.131L112.878,10.08L112.36,10.033L111.84,9.988L111.32,9.947L110.799,9.909L110.277,9.874L109.754,9.843L109.231,9.814L108.706,9.789L108.181,9.768L107.654,9.749L107.127,9.734L106.599,9.723L106.07,9.714L105.541,9.709L105.011,9.707L104.48,9.709Z" style="fill:white;"/>
                </g>
                <g id="thumbs-up-31663" transform="matrix(0.0415818,1.5955,-1.5955,0.0415818,97.0583,87.5037)">
                    <clipPath id="_clip1">
                        <path d="M-39.53,-2.211C-38.848,-28.365 -24.004,-67.057 2.149,-66.375C28.303,-65.694 55.927,-25.895 55.245,0.259C54.563,26.412 32.776,47.092 6.623,46.411C-19.531,45.729 -40.211,23.942 -39.53,-2.211Z"/>
                    </clipPath>
                    <g clip-path="url(#_clip1)">
                        <g transform="matrix(1,0,0,1,-35.7508,-58.2529)">
                            <clipPath id="_clip2">
                                <rect x="0" y="0" width="71.502" height="116.506"/>
                            </clipPath>
                            <g clip-path="url(#_clip2)">
                                <g transform="matrix(1.3358,0,0,1.3358,-49.29,-26.235)">
                                    <path d="M59.081,105.96C56.557,107.697 53.901,106.458 50.669,106.109C47.569,105.774 41.152,100.402 39.313,97.696C37.218,94.614 36.909,91.356 36.9,88.815C37.094,85.465 39.849,81.109 44.3,81.46C46.558,81.641 47.845,79.698 49.115,78.257C50.773,76.377 51.49,75.73 52.707,74.005C54.03,72.128 56.218,70.144 53.743,67.995C51.699,66.22 52.68,63.214 54.292,61.221C55.644,59.551 53.88,58.467 53.567,56.852C53.126,54.572 54.204,52.006 56.271,50.866C58.472,49.652 60.471,49.625 62.436,47.794C63.08,45.477 62.291,40.755 61.937,38.183C61.576,35.562 60.542,33.164 59.99,30.62C59.38,27.806 58.874,24.004 60.498,21.664C62.014,19.478 65.475,19.19 67.661,20.208C70.316,21.444 72.419,22.605 73.933,24.746C75.452,26.893 77.752,30.171 77.316,32.945C76.608,37.458 73.575,41.754 74.191,44.867L74.344,45.463C75.682,45.399 76.696,45.579 78.019,46.207L81.572,46.56C83.656,46.613 85.771,48.684 86.812,50.364C88.322,52.804 89.042,56.232 88.61,59.609C89.197,60.423 90.102,61.752 90.31,63.655C90.722,67.423 90.094,71.65 87.776,73.288C88.364,75.27 87.58,77.927 85.95,79.554C87.416,80.767 87.985,82.962 86.333,85.689C85.387,87.252 84.095,88.05 82.036,88.853C80.899,89.297 78.286,90.112 75.665,90.295C74.723,91.624 71.759,93.567 70.608,94.431C68.466,95.952 66.699,95.426 64.559,96.468C60.446,98.468 63.092,103.2 59.081,105.96L59.081,105.96Z" style="fill:white;fill-rule:nonzero;"/>
                                    <path d="M59.081,105.96C56.557,107.697 53.901,106.458 50.669,106.109C47.569,105.774 41.152,100.402 39.313,97.696C37.218,94.614 36.909,91.356 36.9,88.815C37.095,85.465 39.849,81.109 44.3,81.46C46.558,81.641 47.845,79.698 49.115,78.257C50.773,76.377 51.49,75.73 52.707,74.005C54.03,72.128 56.218,70.144 53.743,67.995C51.699,66.22 52.68,63.214 54.292,61.221C55.644,59.551 53.88,58.467 53.567,56.852C53.126,54.572 54.204,52.006 56.271,50.866C58.472,49.652 60.471,49.625 62.436,47.794C63.08,45.477 62.291,40.755 61.937,38.183C61.576,35.562 60.542,33.164 59.99,30.62C59.38,27.806 58.874,24.004 60.498,21.664C62.014,19.478 65.475,19.19 67.661,20.208C70.316,21.444 72.419,22.605 73.933,24.746C75.452,26.893 77.752,30.171 77.316,32.945C76.608,37.458 73.575,41.754 74.191,44.867C72.706,42.336 75.941,36.606 76.224,33.157C76.488,29.916 74.541,27.36 73.039,25.343C72.075,24.048 69.853,22.292 67.736,21.459C66.003,20.777 63.658,20.028 61.753,22.172C60.018,24.011 60.57,28.15 61.137,30.333C61.922,33.36 62.855,36.283 63.291,39.888C63.573,42.214 63.689,45.331 63.451,47.794C64.435,48.232 67.759,46.841 69.668,46.436C72.263,45.884 75.423,44.601 78.019,46.206C74.266,45.892 71.429,46.778 68.134,47.727C65.677,48.435 63.267,49.353 60.846,50.136C58.991,50.906 56.843,51.636 55.537,53.112C54.363,54.437 53.908,55.888 55.454,57.396C57.516,59.409 55.072,61.76 53.863,63.357C52.239,65.502 55.007,67.201 56.156,68.703C57.41,70.343 56.466,73.072 55.646,74.981C54.797,76.958 56.273,76.964 57.482,79.293C58.18,80.637 56.812,82.354 57.601,83.672C55.302,83.201 57.126,80.09 56.232,79.274C53.824,77.078 54.235,76.825 55.418,73.721C56.15,71.798 56.089,71.106 55.784,70.822C54.917,72.824 51.204,76.846 49.801,78.601C48.443,80.301 46.384,82.126 44.292,82.021C39.935,81.8 38.177,86.44 38.257,88.841C38.323,90.748 39.163,93.804 40.949,96.111C42.166,97.684 48.43,103.263 50.951,103.443C53.641,103.635 56.737,103.371 57.999,100.775C59.181,99.318 60.201,97.176 61.841,96.109C63.687,94.908 59.586,95.318 59.462,94.169C60.797,94.603 67.189,95.128 69.644,93.545C71.101,92.605 72.479,91.655 73.796,90.318C70.946,90.681 66.99,90.882 64.381,89.963C66.426,90.086 68.188,89.827 69.124,89.728C71.181,89.511 73.454,88.927 75.13,88.333C77.03,87.66 77.401,87.385 78.618,86.664C78.462,87.466 78.083,88.293 77.481,88.848C79.549,88.279 83.997,86.815 85.211,85.035C86.391,83.305 86.495,81.445 84.604,79.923C83.92,79.406 83.707,78.344 84.793,78.84C85.144,78.388 85.995,76.839 86.197,75.773C86.619,73.545 85.68,69.765 83.804,68.217C85.016,68.694 86.714,70.52 87.376,71.541C89.131,69.73 89.65,66.585 89.244,63.589C88.718,59.697 87.357,58.607 84.143,56.688C86.057,57.003 86.957,57.668 87.739,58.421C88.002,55.867 87.062,53.189 85.868,50.951C85,49.326 83.357,47.682 81.573,46.56C83.656,46.612 85.772,48.683 86.812,50.363C88.322,52.803 89.043,56.231 88.61,59.608C89.197,60.422 90.103,61.751 90.311,63.654C90.723,67.422 90.094,71.649 87.777,73.287C88.364,75.269 87.581,77.926 85.95,79.553C87.417,80.766 87.985,82.961 86.334,85.688C85.387,87.251 84.095,88.049 82.036,88.852C80.899,89.296 78.286,90.111 75.666,90.294C74.724,91.623 71.759,93.566 70.609,94.43C68.466,95.951 66.7,95.425 64.559,96.467C60.447,98.467 63.092,103.199 59.081,105.959L59.081,105.96ZM52.272,96.997C53.761,95.406 55.976,93.866 55.371,91.237C54.792,89.454 56.676,85.694 56.287,89.588C56.936,91.567 58.1,93.798 55.627,95.004C54.893,95.769 53.435,97.623 52.272,96.997L52.272,96.997ZM61.995,89.042C60.728,88.819 58.046,87.207 58.653,85.65C59.165,86.696 62.344,87.244 61.995,89.042L61.995,89.042L61.995,89.042ZM70.256,80.71C69.114,80.482 65.974,78.07 67.545,77.788C69.856,78.422 72.404,79.659 74.913,79.004C77.421,78.349 80.471,77.802 82.783,78.83C80.342,79.161 78.674,79.753 76.315,80.192C74.408,80.547 72.245,81.106 70.256,80.71L70.256,80.71ZM82.839,75.209C83.577,73.345 81.437,69.954 82.59,69.384C83.158,71.202 85.549,73.092 83.74,74.722C83.645,74.966 83.139,75.854 82.839,75.209L82.839,75.209ZM65.081,69.303C62.675,67.413 63.3,66.935 64.728,67.283C66.246,67.652 69.986,67.846 71.073,67.589C73.506,67.014 78.469,65.979 80.495,67.812C78.366,67.461 74.337,68.485 71.684,68.918C70.203,69.159 66.258,70.228 65.081,69.303L65.081,69.303ZM81.618,65.706C83.704,64.312 81.506,59.694 83.487,59.139C84.24,61.241 84.835,65.591 81.75,65.853L81.618,65.706L81.618,65.706L81.618,65.706ZM63.807,58.953C61.609,58.008 61.661,56.781 64.503,57.045C68.017,57.372 71.726,56.501 75.077,56.071C77.254,55.793 81.015,55.354 82.522,56.284C79.813,56.763 76.979,56.815 74.395,57.611C71.404,58.531 64.263,59.149 63.807,58.953L63.807,58.953ZM80.734,47.83C82.081,49.112 83.752,51.272 82.31,53.154C82.502,51.087 80.527,49.617 80.734,47.83ZM64.949,39.41C65.896,37.134 69.867,38.164 72.209,38.079C74.085,39.831 70.568,38.992 69.536,39.201C68.154,38.927 65.926,40.921 64.949,39.41L64.949,39.41Z" style="fill-rule:nonzero;"/>
                                </g>
                            </g>
                        </g>
                    </g>
                </g>
                <g transform="matrix(0.853505,0,0,0.853505,10.3729,21.679)">
                    <clipPath id="_clip3">
                        <rect x="-17.954" y="9.707" width="138.392" height="164.113"/>
                    </clipPath>
                    <g clip-path="url(#_clip3)">
                        <path d="M105.623,-3.241L106.235,-3.235L106.846,-3.226L107.456,-3.212L108.065,-3.195L108.673,-3.173L109.281,-3.148L109.887,-3.12L110.493,-3.087L111.097,-3.05L111.701,-3.01L112.304,-2.966L112.906,-2.918L113.507,-2.867L114.107,-2.812L114.706,-2.753L115.303,-2.69L115.9,-2.623L116.496,-2.553L117.091,-2.48L117.684,-2.402L118.277,-2.321L118.868,-2.236L119.458,-2.148L120.047,-2.056L120.635,-1.96L121.222,-1.861L121.808,-1.758L122.392,-1.652L122.975,-1.542L123.557,-1.428L124.138,-1.311L124.718,-1.191L125.296,-1.066L125.873,-0.939L126.448,-0.808L127.023,-0.673L127.596,-0.535L128.167,-0.394L128.738,-0.249L129.307,-0.1L129.874,0.052L130.44,0.207L131.005,0.366L131.568,0.528L132.13,0.693L132.691,0.862L133.25,1.034L133.807,1.209L134.363,1.388L134.918,1.57L135.471,1.756L136.023,1.945L136.573,2.136L137.121,2.332L137.668,2.53L138.213,2.732L138.757,2.937L139.299,3.145L139.84,3.357L140.379,3.571L140.916,3.789L141.452,4.01L141.986,4.234L142.518,4.461L143.049,4.692L143.578,4.925L144.105,5.162L144.631,5.401L145.154,5.644L145.676,5.89L146.197,6.139L146.715,6.391L147.232,6.646L147.747,6.904L148.26,7.165L148.771,7.429L149.281,7.696L149.789,7.966L150.295,8.239L150.799,8.515L151.301,8.794L151.801,9.075L152.299,9.36L152.796,9.648L153.29,9.938L153.783,10.232L154.273,10.528L154.762,10.827L155.249,11.129L155.734,11.434L156.216,11.741L156.697,12.052L157.176,12.365L157.653,12.681L158.127,13L158.6,13.321L159.071,13.645L159.539,13.972L160.006,14.302L160.47,14.635L160.932,14.97L161.393,15.308L161.851,15.648L162.307,15.991L162.76,16.337L163.212,16.686L163.662,17.037L164.109,17.39L164.554,17.747L164.997,18.106L165.438,18.467L165.876,18.832L166.312,19.198L166.746,19.567L167.178,19.939L167.607,20.314L168.035,20.69L168.46,21.07L168.882,21.452L169.303,21.836L169.721,22.223L170.136,22.612L170.55,23.004L170.961,23.398L171.369,23.795L171.775,24.194L172.179,24.595L172.581,24.999L172.98,25.405L173.376,25.814L173.771,26.225L174.162,26.638L174.552,27.054L174.938,27.472L175.323,27.892L175.705,28.315L176.084,28.74L176.461,29.167L176.835,29.597L177.207,30.028L177.576,30.462L177.943,30.899L178.307,31.337L178.669,31.778L179.028,32.221L179.384,32.666L179.738,33.113L180.089,33.562L180.438,34.014L180.783,34.468L181.127,34.924L181.467,35.382L181.805,35.842L182.14,36.304L182.473,36.769L182.802,37.235L183.129,37.704L183.453,38.174L183.775,38.647L184.094,39.122L184.41,39.599L184.723,40.077L185.033,40.558L185.341,41.041L185.646,41.526L185.948,42.012L186.247,42.501L186.543,42.992L186.836,43.484L187.127,43.979L187.414,44.475L187.699,44.974L187.981,45.474L188.26,45.976L188.536,46.48L188.809,46.986L189.079,47.494L189.346,48.003L189.61,48.514L189.871,49.028L190.129,49.543L190.384,50.059L190.636,50.578L190.885,51.098L191.13,51.62L191.373,52.144L191.613,52.669L191.849,53.197L192.083,53.726L192.313,54.257L192.541,54.789L192.765,55.323L192.986,55.858L193.203,56.396L193.418,56.935L193.629,57.475L193.838,58.017L194.043,58.561L194.244,59.107L194.443,59.653L194.638,60.202L194.83,60.752L195.019,61.303L195.204,61.857L195.386,62.411L195.565,62.967L195.741,63.525L195.913,64.084L196.081,64.644L196.247,65.206L196.409,65.77L196.568,66.334L196.723,66.901L196.875,67.468L197.023,68.037L197.168,68.607L197.31,69.179L197.448,69.752L197.582,70.326L197.713,70.902L197.841,71.479L197.965,72.057L198.086,72.636L198.203,73.217L198.316,73.799L198.426,74.382L198.533,74.967L198.636,75.552L198.735,76.139L198.83,76.727L198.922,77.316L199.011,77.906L199.096,78.498L199.177,79.09L199.254,79.684L199.328,80.279L199.398,80.874L199.464,81.471L199.527,82.069L199.586,82.668L199.641,83.268L199.693,83.869L199.741,84.471L199.785,85.073L199.825,85.677L199.861,86.282L199.894,86.888L199.923,87.494L199.948,88.102L199.969,88.71L199.987,89.319L200,89.929L200.01,90.54L200.016,91.151L200.018,91.764L200.016,92.377L200.01,92.988L200,93.599L199.987,94.209L199.969,94.818L199.948,95.426L199.923,96.034L199.894,96.64L199.861,97.246L199.825,97.851L199.785,98.455L199.741,99.057L199.693,99.659L199.641,100.26L199.586,100.86L199.527,101.459L199.464,102.057L199.398,102.654L199.328,103.249L199.254,103.844L199.177,104.437L199.096,105.03L199.011,105.622L198.922,106.212L198.83,106.801L198.735,107.389L198.636,107.976L198.533,108.561L198.426,109.146L198.316,109.729L198.203,110.311L198.086,110.891L197.965,111.471L197.841,112.049L197.713,112.626L197.582,113.202L197.448,113.776L197.31,114.349L197.168,114.921L197.023,115.491L196.875,116.06L196.723,116.627L196.568,117.194L196.409,117.758L196.247,118.322L196.081,118.884L195.913,119.444L195.741,120.003L195.565,120.561L195.386,121.117L195.204,121.671L195.019,122.225L194.83,122.776L194.638,123.326L194.443,123.874L194.244,124.421L194.043,124.967L193.838,125.511L193.629,126.053L193.418,126.593L193.203,127.132L192.986,127.67L192.765,128.205L192.541,128.739L192.313,129.271L192.083,129.802L191.849,130.331L191.613,130.858L191.373,131.384L191.13,131.908L190.885,132.43L190.636,132.95L190.384,133.468L190.129,133.985L189.871,134.5L189.61,135.013L189.346,135.525L189.079,136.034L188.809,136.542L188.536,137.048L188.26,137.552L187.981,138.054L187.699,138.554L187.414,139.052L187.127,139.549L186.836,140.044L186.543,140.536L186.247,141.027L185.948,141.516L185.646,142.002L185.341,142.487L185.033,142.97L184.723,143.451L184.41,143.929L184.094,144.406L183.775,144.881L183.453,145.353L183.129,145.824L182.802,146.292L182.473,146.759L182.14,147.223L181.805,147.686L181.467,148.146L181.127,148.604L180.783,149.06L180.438,149.514L180.089,149.965L179.738,150.415L179.384,150.862L179.028,151.307L178.669,151.75L178.307,152.191L177.943,152.629L177.576,153.066L177.207,153.5L176.835,153.931L176.461,154.361L176.084,154.788L175.705,155.213L175.323,155.636L174.938,156.056L174.552,156.474L174.162,156.89L173.771,157.303L173.376,157.714L172.98,158.122L172.581,158.529L172.179,158.933L171.775,159.334L171.369,159.733L170.961,160.13L170.55,160.524L170.136,160.916L169.721,161.305L169.303,161.692L168.882,162.076L168.46,162.458L168.035,162.837L167.608,163.214L167.178,163.589L166.746,163.961L166.312,164.33L165.876,164.696L165.437,165.061L164.997,165.422L164.554,165.781L164.109,166.138L163.662,166.491L163.212,166.842L162.76,167.191L162.307,167.537L161.851,167.88L161.393,168.22L160.932,168.558L160.47,168.893L160.006,169.226L159.539,169.556L159.071,169.883L158.6,170.207L158.127,170.528L157.653,170.847L157.176,171.163L156.697,171.476L156.216,171.787L155.734,172.094L155.249,172.399L154.762,172.701L154.273,173L153.783,173.296L153.29,173.59L152.796,173.88L152.299,174.168L151.801,174.453L151.301,174.734L150.799,175.013L150.295,175.289L149.789,175.562L149.281,175.832L148.772,176.099L148.26,176.363L147.747,176.624L147.232,176.882L146.715,177.137L146.197,177.389L145.676,177.638L145.154,177.884L144.631,178.127L144.105,178.366L143.578,178.603L143.049,178.836L142.518,179.067L141.986,179.294L141.452,179.518L140.916,179.739L140.379,179.957L139.84,180.171L139.299,180.383L138.757,180.591L138.213,180.796L137.668,180.998L137.121,181.196L136.573,181.391L136.023,181.583L135.471,181.772L134.918,181.958L134.363,182.14L133.807,182.318L133.25,182.494L132.691,182.666L132.13,182.835L131.568,183L131.005,183.162L130.44,183.321L129.874,183.476L129.307,183.628L128.737,183.776L128.167,183.921L127.596,184.063L127.022,184.201L126.448,184.336L125.873,184.467L125.296,184.594L124.718,184.719L124.138,184.839L123.557,184.956L122.975,185.07L122.392,185.18L121.808,185.286L121.222,185.389L120.635,185.488L120.047,185.584L119.458,185.676L118.868,185.764L118.277,185.849L117.684,185.93L117.091,186.008L116.496,186.081L115.9,186.151L115.303,186.218L114.706,186.281L114.107,186.34L113.507,186.395L112.906,186.446L112.304,186.494L111.701,186.538L111.098,186.578L110.493,186.615L109.887,186.647L109.281,186.676L108.673,186.701L108.065,186.723L107.456,186.74L106.846,186.753L106.235,186.763L105.623,186.769L105.011,186.771L104.398,186.769L103.786,186.763L103.176,186.753L102.566,186.74L101.957,186.723L101.348,186.701L100.741,186.676L100.134,186.647L99.529,186.615L98.924,186.578L98.32,186.538L97.717,186.494L97.115,186.446L96.515,186.395L95.915,186.34L95.316,186.281L94.718,186.218L94.121,186.151L93.525,186.081L92.931,186.008L92.337,185.93L91.744,185.849L91.153,185.764L90.563,185.676L89.974,185.584L89.386,185.488L88.799,185.389L88.213,185.286L87.629,185.18L87.046,185.07L86.464,184.956L85.883,184.839L85.304,184.719L84.726,184.594L84.148,184.467L83.573,184.336L82.999,184.201L82.425,184.063L81.854,183.921L81.284,183.776L80.715,183.628L80.147,183.476L79.581,183.321L79.016,183.162L78.453,183L77.891,182.835L77.33,182.666L76.771,182.494L76.214,182.318L75.658,182.14L75.103,181.958L74.55,181.772L73.998,181.583L73.448,181.391L72.9,181.196L72.353,180.998L71.808,180.796L71.264,180.591L70.722,180.383L70.181,180.171L69.642,179.957L69.105,179.739L68.569,179.518L68.035,179.294L67.503,179.067L66.972,178.836L66.443,178.603L65.916,178.366L65.391,178.127L64.867,177.884L64.345,177.638L63.824,177.389L63.306,177.137L62.789,176.882L62.274,176.624L61.761,176.363L61.25,176.099L60.74,175.832L60.232,175.562L59.727,175.289L59.223,175.013L58.721,174.734L58.22,174.453L57.722,174.168L57.225,173.88L56.731,173.59L56.239,173.296L55.748,173L55.259,172.701L54.772,172.399L54.288,172.094L53.805,171.787L53.324,171.476L52.845,171.163L52.369,170.847L51.894,170.528L51.421,170.207L50.951,169.883L50.482,169.556L50.016,169.226L49.551,168.893L49.089,168.558L48.629,168.22L48.171,167.88L47.715,167.537L47.261,167.191L46.809,166.842L46.36,166.491L45.912,166.137L45.467,165.781L45.024,165.422L44.584,165.061L44.145,164.696L43.709,164.33L43.275,163.961L42.843,163.589L42.414,163.214L41.986,162.837L41.562,162.458L41.139,162.076L40.719,161.692L40.301,161.305L39.885,160.916L39.471,160.524L39.061,160.13L38.652,159.733L38.246,159.334L37.842,158.933L37.44,158.529L37.041,158.122L36.645,157.714L36.251,157.303L35.859,156.89L35.47,156.474L35.083,156.056L34.698,155.636L34.316,155.213L33.937,154.788L33.56,154.361L33.186,153.931L32.814,153.5L32.445,153.066L32.078,152.629L31.714,152.191L31.352,151.75L30.993,151.307L30.637,150.862L30.283,150.415L29.932,149.965L29.584,149.514L29.238,149.06L28.895,148.604L28.554,148.146L28.216,147.686L27.881,147.223L27.549,146.759L27.219,146.293L26.892,145.824L26.568,145.353L26.246,144.881L25.927,144.406L25.611,143.929L25.298,143.45L24.988,142.97L24.68,142.487L24.376,142.002L24.074,141.515L23.774,141.027L23.478,140.536L23.185,140.044L22.894,139.549L22.607,139.053L22.322,138.554L22.04,138.054L21.761,137.552L21.486,137.048L21.213,136.542L20.943,136.034L20.676,135.525L20.412,135.013L20.151,134.5L19.893,133.985L19.638,133.469L19.386,132.95L19.137,132.43L18.891,131.908L18.648,131.384L18.408,130.858L18.172,130.331L17.938,129.802L17.708,129.272L17.481,128.739L17.257,128.205L17.036,127.67L16.818,127.132L16.603,126.593L16.392,126.053L16.184,125.511L15.979,124.967L15.777,124.421L15.578,123.875L15.383,123.326L15.191,122.776L15.002,122.225L14.817,121.671L14.635,121.117L14.456,120.561L14.281,120.003L14.109,119.444L13.94,118.884L13.774,118.322L13.612,117.758L13.454,117.194L13.298,116.627L13.147,116.06L12.998,115.491L12.853,114.921L12.712,114.349L12.573,113.776L12.439,113.202L12.308,112.626L12.18,112.049L12.056,111.471L11.935,110.891L11.818,110.311L11.705,109.729L11.595,109.146L11.488,108.561L11.386,107.976L11.286,107.389L11.191,106.801L11.099,106.212L11.01,105.621L10.926,105.03L10.844,104.438L10.767,103.844L10.693,103.249L10.623,102.654L10.557,102.057L10.494,101.459L10.435,100.86L10.38,100.26L10.328,99.659L10.28,99.057L10.236,98.455L10.196,97.851L10.16,97.246L10.127,96.64L10.098,96.034L10.073,95.426L10.052,94.818L10.035,94.209L10.021,93.599L10.011,92.988L10.006,92.376L10.004,91.764L10.006,91.152L10.011,90.54L10.021,89.929L10.035,89.319L10.052,88.71L10.073,88.101L10.098,87.494L10.127,86.888L10.16,86.282L10.196,85.677L10.236,85.073L10.28,84.471L10.328,83.869L10.38,83.268L10.435,82.668L10.494,82.069L10.557,81.471L10.623,80.874L10.693,80.279L10.767,79.684L10.844,79.09L10.926,78.498L11.01,77.906L11.099,77.316L11.191,76.727L11.286,76.139L11.386,75.552L11.488,74.967L11.595,74.382L11.705,73.799L11.818,73.217L11.935,72.636L12.056,72.057L12.18,71.479L12.308,70.902L12.439,70.326L12.573,69.752L12.712,69.179L12.853,68.607L12.998,68.037L13.147,67.468L13.298,66.9L13.454,66.334L13.612,65.77L13.774,65.206L13.94,64.644L14.108,64.084L14.281,63.525L14.456,62.967L14.635,62.411L14.817,61.857L15.002,61.303L15.191,60.752L15.383,60.202L15.578,59.653L15.777,59.106L15.979,58.561L16.184,58.017L16.392,57.475L16.603,56.935L16.818,56.396L17.036,55.858L17.257,55.323L17.481,54.789L17.708,54.256L17.938,53.726L18.172,53.197L18.408,52.67L18.648,52.144L18.891,51.62L19.137,51.098L19.386,50.578L19.638,50.059L19.893,49.543L20.151,49.028L20.412,48.514L20.676,48.003L20.943,47.494L21.213,46.986L21.486,46.48L21.761,45.976L22.04,45.474L22.322,44.974L22.607,44.475L22.894,43.979L23.185,43.484L23.478,42.992L23.774,42.501L24.074,42.012L24.376,41.526L24.68,41.041L24.988,40.558L25.298,40.077L25.611,39.599L25.927,39.122L26.246,38.647L26.568,38.175L26.892,37.704L27.219,37.235L27.549,36.769L27.881,36.304L28.216,35.842L28.554,35.382L28.895,34.924L29.238,34.468L29.584,34.014L29.932,33.563L30.283,33.113L30.637,32.666L30.993,32.221L31.352,31.778L31.714,31.337L32.078,30.899L32.445,30.462L32.814,30.028L33.186,29.597L33.56,29.167L33.937,28.74L34.316,28.315L34.698,27.892L35.083,27.472L35.47,27.054L35.859,26.638L36.251,26.225L36.645,25.814L37.041,25.405L37.44,24.999L37.842,24.595L38.246,24.194L38.652,23.795L39.061,23.398L39.472,23.004L39.885,22.612L40.301,22.223L40.719,21.836L41.139,21.452L41.562,21.07L41.986,20.69L42.414,20.314L42.843,19.939L43.275,19.567L43.709,19.198L44.145,18.832L44.584,18.467L45.024,18.106L45.467,17.747L45.912,17.39L46.36,17.037L46.809,16.686L47.261,16.337L47.715,15.991L48.171,15.648L48.629,15.308L49.089,14.97L49.551,14.635L50.016,14.302L50.482,13.972L50.951,13.645L51.421,13.321L51.894,13L52.369,12.681L52.845,12.365L53.324,12.052L53.805,11.741L54.288,11.434L54.772,11.129L55.259,10.827L55.748,10.528L56.238,10.232L56.731,9.938L57.226,9.648L57.722,9.36L58.22,9.075L58.721,8.794L59.223,8.515L59.727,8.239L60.232,7.966L60.74,7.696L61.25,7.429L61.761,7.165L62.274,6.904L62.789,6.646L63.306,6.391L63.824,6.139L64.345,5.89L64.867,5.644L65.391,5.401L65.916,5.162L66.443,4.925L66.972,4.692L67.503,4.461L68.035,4.234L68.569,4.01L69.105,3.789L69.642,3.571L70.181,3.357L70.722,3.145L71.264,2.937L71.808,2.732L72.353,2.53L72.9,2.332L73.448,2.137L73.999,1.945L74.55,1.756L75.103,1.57L75.658,1.388L76.214,1.209L76.771,1.034L77.33,0.862L77.891,0.693L78.453,0.528L79.016,0.366L79.581,0.207L80.147,0.052L80.715,-0.1L81.284,-0.249L81.854,-0.394L82.426,-0.535L82.999,-0.673L83.573,-0.808L84.149,-0.939L84.725,-1.066L85.304,-1.191L85.883,-1.311L86.464,-1.428L87.046,-1.542L87.629,-1.652L88.213,-1.758L88.799,-1.861L89.386,-1.96L89.974,-2.056L90.563,-2.148L91.153,-2.236L91.745,-2.321L92.337,-2.402L92.931,-2.48L93.525,-2.553L94.121,-2.623L94.718,-2.69L95.316,-2.753L95.915,-2.812L96.514,-2.867L97.115,-2.918L97.717,-2.966L98.32,-3.01L98.924,-3.05L99.528,-3.087L100.134,-3.12L100.741,-3.148L101.348,-3.173L101.956,-3.195L102.566,-3.212L103.176,-3.226L103.786,-3.235L104.398,-3.241L105.011,-3.243L105.623,-3.241ZM104.48,9.709L103.951,9.714L103.422,9.723L102.894,9.734L102.367,9.749L101.841,9.768L101.315,9.789L100.791,9.814L100.267,9.843L99.744,9.874L99.222,9.909L98.701,9.947L98.181,9.988L97.662,10.033L97.143,10.08L96.626,10.131L96.109,10.186L95.594,10.243L95.079,10.304L94.566,10.367L94.053,10.434L93.541,10.504L93.031,10.577L92.521,10.654L92.013,10.733L91.505,10.816L90.999,10.901L90.493,10.99L89.989,11.082L89.485,11.177L88.983,11.275L88.482,11.376L87.982,11.48L87.483,11.587L86.985,11.697L86.489,11.81L85.993,11.926L85.499,12.045L85.006,12.168L84.514,12.293L84.023,12.421L83.533,12.552L83.045,12.686L82.557,12.823L82.071,12.962L81.587,13.105L81.103,13.251L80.621,13.399L80.14,13.551L79.66,13.705L79.182,13.862L78.704,14.022L78.229,14.185L77.754,14.35L77.281,14.519L76.809,14.69L76.338,14.864L75.869,15.041L75.401,15.221L74.935,15.403L74.47,15.588L74.006,15.776L73.544,15.967L73.083,16.16L72.624,16.356L72.166,16.555L71.709,16.757L71.254,16.961L70.801,17.168L70.349,17.377L69.898,17.589L69.449,17.804L69.001,18.022L68.555,18.242L68.111,18.465L67.668,18.69L67.226,18.918L66.786,19.149L66.348,19.382L65.911,19.617L65.476,19.856L65.042,20.096L64.61,20.34L64.18,20.586L63.751,20.834L63.324,21.085L62.899,21.338L62.475,21.594L62.053,21.852L61.632,22.113L61.213,22.377L60.796,22.642L60.381,22.91L59.967,23.181L59.556,23.454L59.145,23.729L58.737,24.007L58.33,24.287L57.925,24.57L57.522,24.855L57.121,25.142L56.721,25.432L56.324,25.724L55.928,26.018L55.534,26.315L55.142,26.614L54.751,26.915L54.363,27.218L53.976,27.524L53.591,27.832L53.209,28.142L52.828,28.455L52.449,28.77L52.071,29.087L51.696,29.406L51.323,29.727L50.952,30.051L50.582,30.377L50.215,30.705L49.85,31.035L49.486,31.367L49.125,31.702L48.766,32.038L48.408,32.377L48.053,32.718L47.7,33.061L47.348,33.406L46.999,33.753L46.652,34.102L46.307,34.453L45.964,34.806L45.623,35.162L45.285,35.519L44.948,35.878L44.614,36.24L44.282,36.603L43.951,36.968L43.623,37.336L43.298,37.705L42.974,38.076L42.653,38.45L42.333,38.825L42.016,39.202L41.702,39.581L41.389,39.962L41.079,40.345L40.771,40.73L40.465,41.116L40.161,41.505L39.86,41.895L39.561,42.287L39.265,42.681L38.97,43.077L38.678,43.475L38.389,43.874L38.102,44.276L37.817,44.679L37.534,45.084L37.254,45.49L36.976,45.899L36.701,46.309L36.428,46.721L36.157,47.134L35.889,47.55L35.623,47.967L35.36,48.386L35.099,48.806L34.841,49.228L34.585,49.652L34.331,50.077L34.081,50.505L33.832,50.933L33.586,51.364L33.343,51.796L33.102,52.229L32.864,52.664L32.628,53.101L32.395,53.54L32.165,53.979L31.937,54.421L31.711,54.864L31.489,55.309L31.268,55.755L31.051,56.202L30.836,56.651L30.624,57.102L30.414,57.554L30.207,58.008L30.003,58.463L29.802,58.919L29.603,59.377L29.407,59.837L29.213,60.297L29.023,60.76L28.835,61.223L28.65,61.688L28.467,62.155L28.288,62.623L28.111,63.092L27.937,63.562L27.765,64.034L27.597,64.507L27.431,64.982L27.268,65.458L27.109,65.935L26.951,66.413L26.797,66.893L26.646,67.374L26.497,67.856L26.352,68.34L26.209,68.825L26.069,69.311L25.932,69.798L25.798,70.286L25.667,70.776L25.539,71.267L25.414,71.759L25.292,72.252L25.173,72.746L25.057,73.242L24.944,73.739L24.834,74.236L24.726,74.735L24.622,75.235L24.521,75.737L24.423,76.239L24.329,76.742L24.237,77.246L24.148,77.752L24.062,78.258L23.98,78.766L23.9,79.275L23.824,79.784L23.751,80.295L23.681,80.806L23.614,81.319L23.55,81.833L23.49,82.347L23.432,82.863L23.378,83.379L23.327,83.897L23.279,84.415L23.235,84.934L23.194,85.454L23.156,85.975L23.121,86.497L23.089,87.02L23.061,87.544L23.036,88.069L23.014,88.594L22.996,89.12L22.981,89.647L22.969,90.175L22.961,90.704L22.956,91.234L22.954,91.764L22.956,92.294L22.961,92.824L22.969,93.353L22.981,93.881L22.996,94.408L23.014,94.934L23.036,95.459L23.061,95.984L23.089,96.508L23.121,97.03L23.156,97.552L23.194,98.074L23.235,98.594L23.279,99.113L23.327,99.631L23.378,100.149L23.432,100.665L23.49,101.181L23.55,101.695L23.614,102.209L23.681,102.722L23.751,103.233L23.824,103.744L23.9,104.253L23.98,104.762L24.062,105.269L24.148,105.776L24.237,106.281L24.329,106.786L24.423,107.289L24.521,107.791L24.622,108.293L24.726,108.793L24.834,109.291L24.944,109.789L25.057,110.286L25.173,110.781L25.292,111.276L25.414,111.769L25.539,112.261L25.667,112.752L25.798,113.242L25.932,113.73L26.069,114.217L26.209,114.703L26.352,115.188L26.497,115.672L26.646,116.154L26.797,116.635L26.951,117.115L27.109,117.593L27.268,118.07L27.431,118.546L27.597,119.021L27.765,119.494L27.937,119.966L28.111,120.436L28.288,120.905L28.467,121.373L28.65,121.84L28.835,122.305L29.023,122.768L29.213,123.23L29.407,123.691L29.603,124.151L29.802,124.609L30.003,125.065L30.207,125.52L30.414,125.974L30.624,126.426L30.836,126.877L31.051,127.326L31.268,127.773L31.489,128.219L31.711,128.664L31.937,129.107L32.165,129.548L32.395,129.988L32.628,130.427L32.864,130.864L33.102,131.299L33.343,131.732L33.586,132.164L33.832,132.595L34.081,133.023L34.331,133.451L34.585,133.876L34.841,134.3L35.099,134.722L35.36,135.142L35.623,135.561L35.889,135.978L36.157,136.394L36.428,136.807L36.701,137.219L36.976,137.629L37.254,138.038L37.534,138.444L37.817,138.849L38.102,139.252L38.389,139.654L38.678,140.053L38.97,140.451L39.265,140.847L39.561,141.241L39.86,141.633L40.161,142.023L40.465,142.412L40.771,142.798L41.079,143.183L41.389,143.566L41.702,143.947L42.016,144.326L42.333,144.703L42.653,145.078L42.974,145.452L43.298,145.823L43.623,146.192L43.951,146.559L44.282,146.925L44.614,147.288L44.948,147.65L45.285,148.009L45.623,148.366L45.964,148.722L46.307,149.075L46.652,149.426L46.999,149.775L47.348,150.122L47.7,150.467L48.053,150.81L48.408,151.151L48.766,151.49L49.125,151.826L49.486,152.161L49.85,152.493L50.215,152.823L50.582,153.151L50.952,153.477L51.323,153.801L51.696,154.122L52.071,154.441L52.449,154.758L52.828,155.073L53.209,155.385L53.591,155.696L53.976,156.004L54.363,156.31L54.751,156.613L55.142,156.914L55.534,157.213L55.928,157.51L56.324,157.804L56.721,158.096L57.121,158.386L57.522,158.673L57.925,158.958L58.33,159.241L58.737,159.521L59.145,159.799L59.556,160.074L59.967,160.347L60.381,160.618L60.796,160.886L61.213,161.151L61.632,161.415L62.053,161.675L62.475,161.934L62.899,162.19L63.324,162.443L63.751,162.694L64.18,162.942L64.61,163.188L65.042,163.432L65.476,163.672L65.911,163.911L66.348,164.146L66.786,164.379L67.226,164.61L67.668,164.838L68.111,165.063L68.555,165.286L69.001,165.506L69.449,165.724L69.898,165.938L70.349,166.151L70.801,166.36L71.254,166.567L71.709,166.771L72.166,166.973L72.624,167.172L73.083,167.368L73.544,167.561L74.006,167.752L74.47,167.94L74.935,168.125L75.401,168.307L75.869,168.487L76.338,168.664L76.809,168.838L77.281,169.009L77.754,169.178L78.229,169.343L78.704,169.506L79.182,169.666L79.66,169.823L80.14,169.977L80.621,170.129L81.103,170.277L81.587,170.423L82.071,170.566L82.557,170.705L83.045,170.842L83.533,170.976L84.023,171.107L84.514,171.235L85.006,171.36L85.499,171.482L85.993,171.602L86.489,171.718L86.985,171.831L87.483,171.941L87.982,172.048L88.482,172.152L88.983,172.253L89.485,172.351L89.989,172.446L90.493,172.538L90.999,172.627L91.505,172.712L92.013,172.795L92.521,172.874L93.031,172.951L93.541,173.024L94.053,173.094L94.566,173.161L95.079,173.224L95.594,173.285L96.109,173.342L96.626,173.396L97.143,173.447L97.662,173.495L98.181,173.54L98.701,173.581L99.222,173.619L99.744,173.654L100.267,173.685L100.791,173.714L101.315,173.739L101.841,173.76L102.367,173.779L102.894,173.794L103.422,173.805L103.951,173.814L104.48,173.819L105.011,173.82L105.541,173.819L106.07,173.814L106.599,173.805L107.127,173.794L107.654,173.779L108.181,173.76L108.706,173.739L109.231,173.714L109.754,173.685L110.277,173.654L110.799,173.619L111.32,173.581L111.84,173.54L112.36,173.495L112.878,173.447L113.395,173.396L113.912,173.342L114.427,173.285L114.942,173.224L115.456,173.161L115.968,173.094L116.48,173.024L116.99,172.951L117.5,172.874L118.009,172.795L118.516,172.712L119.023,172.627L119.528,172.538L120.032,172.446L120.536,172.351L121.038,172.253L121.539,172.152L122.039,172.048L122.538,171.941L123.036,171.831L123.533,171.718L124.028,171.602L124.522,171.482L125.016,171.36L125.508,171.235L125.999,171.107L126.488,170.976L126.977,170.842L127.464,170.705L127.95,170.566L128.435,170.423L128.918,170.277L129.4,170.129L129.881,169.977L130.361,169.823L130.84,169.666L131.317,169.506L131.793,169.343L132.267,169.178L132.74,169.009L133.212,168.838L133.683,168.664L134.152,168.487L134.62,168.307L135.086,168.125L135.551,167.94L136.015,167.752L136.477,167.561L136.938,167.368L137.397,167.172L137.855,166.973L138.312,166.771L138.767,166.567L139.22,166.36L139.673,166.151L140.123,165.938L140.572,165.724L141.02,165.506L141.466,165.286L141.911,165.063L142.354,164.838L142.795,164.61L143.235,164.379L143.673,164.146L144.11,163.911L144.545,163.672L144.979,163.432L145.411,163.188L145.841,162.942L146.27,162.694L146.697,162.443L147.123,162.19L147.546,161.934L147.969,161.675L148.389,161.415L148.808,161.151L149.225,160.886L149.64,160.618L150.054,160.347L150.466,160.074L150.876,159.799L151.284,159.521L151.691,159.241L152.096,158.958L152.499,158.673L152.9,158.386L153.3,158.096L153.697,157.804L154.093,157.51L154.487,157.213L154.88,156.914L155.27,156.613L155.658,156.31L156.045,156.004L156.43,155.696L156.813,155.385L157.194,155.073L157.573,154.758L157.95,154.441L158.325,154.122L158.698,153.801L159.069,153.477L159.439,153.151L159.806,152.823L160.171,152.493L160.535,152.161L160.896,151.826L161.256,151.49L161.613,151.151L161.968,150.81L162.322,150.467L162.673,150.122L163.022,149.775L163.369,149.426L163.714,149.075L164.057,148.722L164.398,148.366L164.736,148.009L165.073,147.65L165.407,147.288L165.74,146.925L166.07,146.559L166.398,146.192L166.724,145.823L167.047,145.452L167.369,145.078L167.688,144.703L168.005,144.326L168.32,143.947L168.632,143.566L168.942,143.183L169.25,142.798L169.556,142.412L169.86,142.023L170.161,141.633L170.46,141.241L170.756,140.847L171.051,140.451L171.343,140.053L171.632,139.654L171.92,139.252L172.205,138.849L172.487,138.444L172.767,138.038L173.045,137.629L173.321,137.219L173.594,136.807L173.864,136.394L174.132,135.978L174.398,135.561L174.661,135.142L174.922,134.722L175.18,134.3L175.436,133.876L175.69,133.451L175.941,133.023L176.189,132.595L176.435,132.164L176.678,131.732L176.919,131.299L177.157,130.864L177.393,130.427L177.626,129.988L177.857,129.548L178.085,129.107L178.31,128.664L178.533,128.219L178.753,127.773L178.97,127.326L179.185,126.877L179.397,126.426L179.607,125.974L179.814,125.52L180.018,125.065L180.22,124.609L180.418,124.151L180.614,123.691L180.808,123.23L180.998,122.768L181.186,122.305L181.372,121.84L181.554,121.373L181.734,120.905L181.91,120.436L182.085,119.966L182.256,119.494L182.424,119.021L182.59,118.546L182.753,118.07L182.913,117.593L183.07,117.115L183.224,116.635L183.375,116.154L183.524,115.672L183.67,115.188L183.812,114.703L183.952,114.217L184.089,113.73L184.223,113.242L184.354,112.752L184.482,112.261L184.607,111.769L184.729,111.276L184.848,110.781L184.964,110.286L185.077,109.789L185.188,109.291L185.295,108.793L185.399,108.293L185.5,107.791L185.598,107.289L185.693,106.786L185.784,106.281L185.873,105.776L185.959,105.269L186.041,104.762L186.121,104.253L186.197,103.744L186.27,103.233L186.34,102.722L186.407,102.209L186.471,101.695L186.532,101.181L186.589,100.665L186.643,100.149L186.694,99.631L186.742,99.113L186.786,98.594L186.828,98.074L186.866,97.552L186.9,97.03L186.932,96.508L186.96,95.984L186.985,95.459L187.007,94.934L187.025,94.408L187.04,93.881L187.052,93.353L187.06,92.824L187.065,92.294L187.067,91.764L187.065,91.234L187.06,90.704L187.052,90.175L187.04,89.647L187.025,89.12L187.007,88.594L186.985,88.069L186.96,87.544L186.932,87.02L186.9,86.497L186.866,85.975L186.828,85.454L186.786,84.934L186.742,84.415L186.694,83.897L186.643,83.379L186.589,82.863L186.532,82.347L186.471,81.833L186.407,81.319L186.34,80.806L186.27,80.295L186.197,79.784L186.121,79.275L186.041,78.766L185.959,78.258L185.873,77.752L185.784,77.246L185.693,76.742L185.598,76.239L185.5,75.737L185.399,75.235L185.295,74.735L185.188,74.236L185.077,73.739L184.964,73.242L184.848,72.746L184.729,72.252L184.607,71.759L184.482,71.267L184.354,70.776L184.223,70.286L184.089,69.798L183.952,69.311L183.812,68.825L183.67,68.34L183.524,67.856L183.375,67.374L183.224,66.893L183.07,66.413L182.913,65.935L182.753,65.458L182.59,64.982L182.424,64.507L182.256,64.034L182.085,63.562L181.91,63.092L181.734,62.623L181.554,62.155L181.372,61.688L181.186,61.223L180.998,60.76L180.808,60.297L180.614,59.837L180.418,59.377L180.22,58.919L180.018,58.463L179.814,58.008L179.607,57.554L179.397,57.102L179.185,56.651L178.97,56.202L178.753,55.755L178.533,55.309L178.31,54.864L178.085,54.421L177.857,53.979L177.626,53.54L177.393,53.101L177.157,52.664L176.919,52.229L176.678,51.796L176.435,51.364L176.189,50.933L175.941,50.505L175.69,50.077L175.436,49.652L175.18,49.228L174.922,48.806L174.661,48.386L174.398,47.967L174.132,47.55L173.864,47.134L173.594,46.721L173.321,46.309L173.045,45.899L172.767,45.49L172.487,45.084L172.205,44.679L171.92,44.276L171.632,43.874L171.343,43.475L171.051,43.077L170.756,42.681L170.46,42.287L170.161,41.895L169.86,41.505L169.556,41.116L169.25,40.73L168.942,40.345L168.632,39.962L168.32,39.581L168.005,39.202L167.688,38.825L167.369,38.45L167.047,38.076L166.724,37.705L166.398,37.336L166.07,36.968L165.74,36.603L165.407,36.24L165.073,35.878L164.736,35.519L164.398,35.162L164.057,34.806L163.714,34.453L163.369,34.102L163.022,33.753L162.673,33.406L162.322,33.061L161.968,32.718L161.613,32.377L161.256,32.038L160.896,31.702L160.535,31.367L160.171,31.035L159.806,30.705L159.439,30.377L159.069,30.051L158.698,29.727L158.325,29.406L157.95,29.087L157.573,28.77L157.194,28.455L156.813,28.142L156.43,27.832L156.045,27.524L155.658,27.218L155.27,26.915L154.88,26.614L154.487,26.315L154.093,26.018L153.697,25.724L153.3,25.432L152.9,25.142L152.499,24.855L152.096,24.57L151.691,24.287L151.284,24.007L150.876,23.729L150.466,23.454L150.054,23.181L149.64,22.91L149.225,22.642L148.808,22.377L148.389,22.113L147.969,21.852L147.546,21.594L147.123,21.338L146.697,21.085L146.27,20.834L145.841,20.586L145.411,20.34L144.979,20.096L144.545,19.856L144.11,19.617L143.673,19.382L143.235,19.149L142.795,18.918L142.354,18.69L141.911,18.465L141.466,18.242L141.02,18.022L140.572,17.804L140.123,17.589L139.673,17.377L139.22,17.168L138.767,16.961L138.312,16.757L137.855,16.555L137.397,16.356L136.938,16.16L136.477,15.967L136.015,15.776L135.551,15.588L135.086,15.403L134.62,15.221L134.152,15.041L133.683,14.864L133.212,14.69L132.74,14.519L132.267,14.35L131.793,14.185L131.317,14.022L130.84,13.862L130.361,13.705L129.881,13.551L129.4,13.399L128.918,13.251L128.435,13.105L127.95,12.962L127.464,12.823L126.977,12.686L126.488,12.552L125.999,12.421L125.508,12.293L125.016,12.168L124.522,12.045L124.028,11.926L123.533,11.81L123.036,11.697L122.538,11.587L122.039,11.48L121.539,11.376L121.038,11.275L120.536,11.177L120.032,11.082L119.528,10.99L119.023,10.901L118.516,10.816L118.009,10.733L117.5,10.654L116.99,10.577L116.48,10.504L115.968,10.434L115.456,10.367L114.942,10.304L114.427,10.243L113.912,10.186L113.395,10.131L112.878,10.08L112.36,10.033L111.84,9.988L111.32,9.947L110.799,9.909L110.277,9.874L109.754,9.843L109.231,9.814L108.706,9.789L108.181,9.768L107.654,9.749L107.127,9.734L106.599,9.723L106.07,9.714L105.541,9.709L105.011,9.707L104.48,9.709Z" style="fill:white;"/>
                    </g>
                </g>
            </g>
        </g>
        <g transform="matrix(1.9337,0,0,1.17647,63.3639,71.6109)">
            <path d="M83.798,-17.347C83.643,-17.347 83.565,-17.444 83.565,-17.639L83.682,-57.714C83.682,-57.869 83.76,-57.947 83.915,-57.947L91.032,-57.947C91.187,-57.947 91.323,-57.869 91.44,-57.714L96.748,-50.014L102.057,-57.714C102.173,-57.869 102.31,-57.947 102.465,-57.947L109.64,-57.947C109.796,-57.947 109.873,-57.869 109.873,-57.714L109.99,-17.639C109.99,-17.444 109.912,-17.347 109.757,-17.347L103.165,-17.347C103.01,-17.347 102.932,-17.444 102.932,-17.639L102.873,-47.389L96.748,-38.522L90.682,-47.389L90.623,-17.639C90.623,-17.444 90.546,-17.347 90.39,-17.347L83.798,-17.347Z" style="fill:white;fill-rule:nonzero;"/>
            <path d="M115.123,-17.347C114.968,-17.347 114.89,-17.444 114.89,-17.639L114.948,-57.714C114.948,-57.869 115.026,-57.947 115.182,-57.947L133.907,-57.947C134.062,-57.947 134.14,-57.85 134.14,-57.655L134.14,-51.122C134.14,-50.966 134.062,-50.889 133.907,-50.889L121.948,-50.889L121.948,-41.789L133.907,-41.789C134.062,-41.789 134.14,-41.711 134.14,-41.555L134.198,-34.964C134.198,-34.808 134.121,-34.73 133.965,-34.73L121.948,-34.73L121.948,-24.522L133.965,-24.522C134.121,-24.522 134.198,-24.425 134.198,-24.23L134.198,-17.58C134.198,-17.425 134.121,-17.347 133.965,-17.347L115.123,-17.347Z" style="fill:white;fill-rule:nonzero;"/>
            <path d="M139.623,-17.347C139.468,-17.347 139.39,-17.444 139.39,-17.639L139.507,-57.714C139.507,-57.869 139.585,-57.947 139.74,-57.947L151.523,-57.947C153.623,-57.947 155.558,-57.432 157.328,-56.401C159.097,-55.371 160.507,-53.99 161.557,-52.26C162.607,-50.529 163.132,-48.575 163.132,-46.397C163.132,-44.958 162.918,-43.665 162.49,-42.518C162.062,-41.371 161.557,-40.398 160.973,-39.601C160.39,-38.804 159.865,-38.211 159.398,-37.822C161.498,-35.489 162.548,-32.747 162.548,-29.597L162.607,-17.639C162.607,-17.444 162.51,-17.347 162.315,-17.347L155.723,-17.347C155.568,-17.347 155.49,-17.405 155.49,-17.522L155.49,-29.597C155.49,-30.997 154.994,-32.212 154.003,-33.243C153.011,-34.273 151.796,-34.789 150.357,-34.789L146.507,-34.789L146.448,-17.639C146.448,-17.444 146.371,-17.347 146.215,-17.347L139.623,-17.347ZM146.507,-41.789L151.523,-41.789C152.729,-41.789 153.798,-42.236 154.732,-43.13C155.665,-44.025 156.132,-45.114 156.132,-46.397C156.132,-47.641 155.675,-48.711 154.761,-49.605C153.847,-50.5 152.768,-50.947 151.523,-50.947L146.507,-50.947L146.507,-41.789Z" style="fill:white;fill-rule:nonzero;"/>
            <path d="M167.74,-17.347C167.585,-17.347 167.507,-17.444 167.507,-17.639L167.565,-57.714C167.565,-57.869 167.643,-57.947 167.798,-57.947L186.523,-57.947C186.679,-57.947 186.757,-57.85 186.757,-57.655L186.757,-51.122C186.757,-50.966 186.679,-50.889 186.523,-50.889L174.565,-50.889L174.565,-41.789L186.523,-41.789C186.679,-41.789 186.757,-41.711 186.757,-41.555L186.815,-34.964C186.815,-34.808 186.737,-34.73 186.582,-34.73L174.565,-34.73L174.565,-24.522L186.582,-24.522C186.737,-24.522 186.815,-24.425 186.815,-24.23L186.815,-17.58C186.815,-17.425 186.737,-17.347 186.582,-17.347L167.74,-17.347Z" style="fill:white;fill-rule:nonzero;"/>
            <path d="M192.24,-17.347C192.085,-17.347 192.007,-17.444 192.007,-17.639L192.065,-57.655C192.065,-57.85 192.162,-57.947 192.357,-57.947L198.832,-57.947C199.026,-57.947 199.123,-57.85 199.123,-57.655L199.065,-24.522L211.082,-24.522C211.276,-24.522 211.373,-24.425 211.373,-24.23L211.373,-17.639C211.373,-17.444 211.276,-17.347 211.082,-17.347L192.24,-17.347Z" style="fill:white;fill-rule:nonzero;"/>
            <path d="M215.865,-17.347C215.748,-17.347 215.69,-17.425 215.69,-17.58L215.748,-34.147L207.932,-57.714C207.893,-57.869 207.951,-57.947 208.107,-57.947L214.582,-57.947C214.776,-57.947 214.893,-57.869 214.932,-57.714L219.248,-42.022L223.623,-57.714C223.662,-57.869 223.76,-57.947 223.915,-57.947L230.448,-57.947C230.604,-57.947 230.662,-57.869 230.623,-57.714L222.748,-34.38L222.807,-17.58C222.807,-17.425 222.729,-17.347 222.573,-17.347L215.865,-17.347Z" style="fill:white;fill-rule:nonzero;"/>
            <path d="M242.757,-17.347C242.562,-17.347 242.465,-17.444 242.465,-17.639L242.582,-57.714C242.582,-57.869 242.66,-57.947 242.815,-57.947L261.482,-57.947C261.676,-57.947 261.773,-57.869 261.773,-57.714L261.773,-51.122C261.773,-50.966 261.696,-50.889 261.54,-50.889L249.582,-50.889L249.582,-41.847L261.54,-41.847C261.696,-41.847 261.773,-41.75 261.773,-41.555L261.832,-34.964C261.832,-34.808 261.735,-34.73 261.54,-34.73L249.582,-34.73L249.582,-17.639C249.582,-17.444 249.485,-17.347 249.29,-17.347L242.757,-17.347Z" style="fill:white;fill-rule:nonzero;"/>
            <path d="M267.898,-17.347C267.704,-17.347 267.607,-17.444 267.607,-17.639L267.665,-57.714C267.665,-57.869 267.743,-57.947 267.898,-57.947L274.432,-57.947C274.587,-57.947 274.665,-57.869 274.665,-57.714L274.723,-17.639C274.723,-17.444 274.646,-17.347 274.49,-17.347L267.898,-17.347Z" style="fill:white;fill-rule:nonzero;"/>
            <path d="M280.382,-17.347C280.071,-17.347 279.915,-17.483 279.915,-17.755L279.857,-57.48C279.857,-57.791 280.012,-57.947 280.323,-57.947L285.573,-57.947L295.432,-34.964L295.14,-57.48C295.14,-57.791 295.315,-57.947 295.665,-57.947L301.44,-57.947C301.673,-57.947 301.79,-57.791 301.79,-57.48L301.848,-17.697C301.848,-17.464 301.751,-17.347 301.557,-17.347L296.423,-17.347L286.332,-38.814L286.74,-17.814C286.74,-17.503 286.565,-17.347 286.215,-17.347L280.382,-17.347Z" style="fill:white;fill-rule:nonzero;"/>
            <path d="M307.157,-17.347C307.001,-17.347 306.923,-17.444 306.923,-17.639L306.982,-57.714C306.982,-57.869 307.06,-57.947 307.215,-57.947L325.94,-57.947C326.096,-57.947 326.173,-57.85 326.173,-57.655L326.173,-51.122C326.173,-50.966 326.096,-50.889 325.94,-50.889L313.982,-50.889L313.982,-41.789L325.94,-41.789C326.096,-41.789 326.173,-41.711 326.173,-41.555L326.232,-34.964C326.232,-34.808 326.154,-34.73 325.998,-34.73L313.982,-34.73L313.982,-24.522L325.998,-24.522C326.154,-24.522 326.232,-24.425 326.232,-24.23L326.232,-17.58C326.232,-17.425 326.154,-17.347 325.998,-17.347L307.157,-17.347Z" style="fill:white;fill-rule:nonzero;"/>
            <path d="M94.24,38.792C92.14,38.792 90.235,38.267 88.523,37.217C86.812,36.167 85.442,34.757 84.411,32.988C83.38,31.218 82.865,29.245 82.865,27.067L82.865,8.575C82.865,6.475 83.38,4.54 84.411,2.771C85.442,1.002 86.822,-0.408 88.553,-1.458C90.283,-2.508 92.179,-3.033 94.24,-3.033C96.379,-3.033 98.314,-2.518 100.044,-1.487C101.775,-0.457 103.146,0.934 104.157,2.684C105.168,4.434 105.673,6.397 105.673,8.575L105.673,11.259C105.673,11.414 105.576,11.492 105.382,11.492L98.848,11.492C98.693,11.492 98.615,11.414 98.615,11.259L98.615,9.042C98.615,7.564 98.197,6.339 97.361,5.367C96.525,4.395 95.485,3.909 94.24,3.909C93.112,3.909 92.111,4.375 91.236,5.309C90.361,6.242 89.923,7.331 89.923,8.575L89.923,27.067C89.923,28.35 90.351,29.449 91.207,30.363C92.062,31.277 93.073,31.734 94.24,31.734C95.485,31.734 96.525,31.286 97.361,30.392C98.197,29.497 98.615,28.389 98.615,27.067L98.615,24.209L94.532,24.209C94.337,24.209 94.24,24.111 94.24,23.917L94.24,17.384C94.24,17.189 94.337,17.092 94.532,17.092L105.44,17.092C105.596,17.092 105.673,17.189 105.673,17.384L105.673,27.067C105.673,29.245 105.158,31.218 104.128,32.988C103.097,34.757 101.726,36.167 100.015,37.217C98.304,38.267 96.379,38.792 94.24,38.792Z" style="fill:white;fill-rule:nonzero;"/>
            <path d="M106.782,37.917L114.015,-2.158C114.054,-2.314 114.151,-2.391 114.307,-2.391L122.765,-2.391C122.921,-2.391 123.018,-2.314 123.057,-2.158L129.998,37.917C130.037,38.111 129.96,38.209 129.765,38.209L123.29,38.209C123.135,38.209 123.037,38.111 122.998,37.917L122.357,33.659L114.423,33.659L113.782,37.917C113.743,38.111 113.646,38.209 113.49,38.209L107.015,38.209C106.86,38.209 106.782,38.111 106.782,37.917ZM115.59,27.417L121.19,27.417L118.798,11.025L118.448,8.867L118.215,11.025L115.59,27.417Z" style="fill:white;fill-rule:nonzero;"/>
            <path d="M133.907,38.209C133.751,38.209 133.673,38.111 133.673,37.917L133.79,-2.158C133.79,-2.314 133.868,-2.391 134.023,-2.391L141.14,-2.391C141.296,-2.391 141.432,-2.314 141.548,-2.158L146.857,5.542L152.165,-2.158C152.282,-2.314 152.418,-2.391 152.573,-2.391L159.748,-2.391C159.904,-2.391 159.982,-2.314 159.982,-2.158L160.098,37.917C160.098,38.111 160.021,38.209 159.865,38.209L153.273,38.209C153.118,38.209 153.04,38.111 153.04,37.917L152.982,8.167L146.857,17.034L140.79,8.167L140.732,37.917C140.732,38.111 140.654,38.209 140.498,38.209L133.907,38.209Z" style="fill:white;fill-rule:nonzero;"/>
            <path d="M165.232,38.209C165.076,38.209 164.998,38.111 164.998,37.917L165.057,-2.158C165.057,-2.314 165.135,-2.391 165.29,-2.391L184.015,-2.391C184.171,-2.391 184.248,-2.294 184.248,-2.1L184.248,4.434C184.248,4.589 184.171,4.667 184.015,4.667L172.057,4.667L172.057,13.767L184.015,13.767C184.171,13.767 184.248,13.845 184.248,14L184.307,20.592C184.307,20.747 184.229,20.825 184.073,20.825L172.057,20.825L172.057,31.034L184.073,31.034C184.229,31.034 184.307,31.131 184.307,31.325L184.307,37.975C184.307,38.131 184.229,38.209 184.073,38.209L165.232,38.209Z" style="fill:white;fill-rule:nonzero;"/>
            <path d="M199.065,38.792C196.965,38.792 195.05,38.257 193.319,37.188C191.589,36.118 190.208,34.699 189.178,32.929C188.147,31.16 187.632,29.206 187.632,27.067L187.632,24.384C187.632,24.189 187.729,24.092 187.923,24.092L194.457,24.092C194.612,24.092 194.69,24.189 194.69,24.384L194.69,27.067C194.69,28.35 195.118,29.449 195.973,30.363C196.829,31.277 197.86,31.734 199.065,31.734C200.271,31.734 201.301,31.267 202.157,30.334C203.012,29.4 203.44,28.311 203.44,27.067C203.44,25.628 202.507,24.384 200.64,23.334C200.018,22.984 199.046,22.439 197.723,21.7C196.401,20.961 195.157,20.261 193.99,19.6C191.851,18.356 190.267,16.79 189.236,14.904C188.205,13.018 187.69,10.889 187.69,8.517C187.69,6.339 188.215,4.385 189.265,2.654C190.315,0.924 191.705,-0.447 193.436,-1.458C195.167,-2.469 197.043,-2.975 199.065,-2.975C201.126,-2.975 203.022,-2.46 204.753,-1.429C206.483,-0.398 207.864,0.982 208.894,2.713C209.925,4.443 210.44,6.378 210.44,8.517L210.44,13.3C210.44,13.456 210.362,13.534 210.207,13.534L203.673,13.534C203.518,13.534 203.44,13.456 203.44,13.3L203.382,8.517C203.382,7.156 202.954,6.047 202.098,5.192C201.243,4.336 200.232,3.909 199.065,3.909C197.86,3.909 196.829,4.365 195.973,5.279C195.118,6.193 194.69,7.272 194.69,8.517C194.69,9.8 194.962,10.87 195.507,11.725C196.051,12.581 197.043,13.397 198.482,14.175C198.676,14.292 199.055,14.496 199.619,14.788C200.183,15.079 200.796,15.41 201.457,15.779C202.118,16.149 202.711,16.47 203.236,16.742C203.761,17.014 204.082,17.189 204.198,17.267C206.143,18.356 207.679,19.688 208.807,21.263C209.935,22.838 210.498,24.772 210.498,27.067C210.498,29.284 209.983,31.277 208.953,33.046C207.922,34.815 206.542,36.215 204.811,37.246C203.08,38.277 201.165,38.792 199.065,38.792Z" style="fill:white;fill-rule:nonzero;"/>
            <path d="M223.507,38.209C223.312,38.209 223.215,38.111 223.215,37.917L223.273,-2.158C223.273,-2.314 223.351,-2.391 223.507,-2.391L230.04,-2.391C230.196,-2.391 230.273,-2.314 230.273,-2.158L230.332,37.917C230.332,38.111 230.254,38.209 230.098,38.209L223.507,38.209Z" style="fill:white;fill-rule:nonzero;"/>
            <path d="M235.99,38.209C235.679,38.209 235.523,38.072 235.523,37.8L235.465,-1.925C235.465,-2.236 235.621,-2.391 235.932,-2.391L241.182,-2.391L251.04,20.592L250.748,-1.925C250.748,-2.236 250.923,-2.391 251.273,-2.391L257.048,-2.391C257.282,-2.391 257.398,-2.236 257.398,-1.925L257.457,37.859C257.457,38.092 257.36,38.209 257.165,38.209L252.032,38.209L241.94,16.742L242.348,37.742C242.348,38.053 242.173,38.209 241.823,38.209L235.99,38.209Z" style="fill:white;fill-rule:nonzero;"/>
            <path d="M273.265,38.792C271.126,38.792 269.192,38.257 267.461,37.188C265.73,36.118 264.36,34.689 263.348,32.9C262.337,31.111 261.832,29.109 261.832,26.892L261.89,8.692C261.89,6.553 262.386,4.599 263.378,2.829C264.369,1.06 265.73,-0.36 267.461,-1.429C269.192,-2.498 271.126,-3.033 273.265,-3.033C275.404,-3.033 277.329,-2.508 279.04,-1.458C280.751,-0.408 282.112,1.002 283.123,2.771C284.135,4.54 284.64,6.514 284.64,8.692L284.64,11.375C284.64,11.531 284.562,11.609 284.407,11.609L277.873,11.609C277.718,11.609 277.64,11.531 277.64,11.375L277.64,8.692C277.64,7.409 277.222,6.3 276.386,5.367C275.55,4.434 274.51,3.967 273.265,3.967C271.865,3.967 270.796,4.443 270.057,5.396C269.318,6.349 268.948,7.447 268.948,8.692L268.948,26.892C268.948,28.331 269.367,29.497 270.203,30.392C271.039,31.286 272.06,31.734 273.265,31.734C274.51,31.734 275.55,31.238 276.386,30.246C277.222,29.254 277.64,28.136 277.64,26.892L277.64,24.209C277.64,24.053 277.718,23.975 277.873,23.975L284.465,23.975C284.621,23.975 284.698,24.053 284.698,24.209L284.698,26.892C284.698,29.109 284.183,31.111 283.153,32.9C282.122,34.689 280.751,36.118 279.04,37.188C277.329,38.257 275.404,38.792 273.265,38.792Z" style="fill:white;fill-rule:nonzero;"/>
            <path d="M285.69,38.209C285.535,38.209 285.457,38.131 285.457,37.975L285.457,31.384C285.457,31.228 285.535,31.15 285.69,31.15L292.282,31.15C292.437,31.15 292.515,31.228 292.515,31.384L292.515,37.975C292.515,38.131 292.437,38.209 292.282,38.209L285.69,38.209Z" style="fill:white;fill-rule:nonzero;"/>
        </g>
    </g>
</svg>
