<?xml version="1.0" encoding="UTF-8" standalone="no"?>
<!DOCTYPE svg PUBLIC "-//W3C//DTD SVG 1.1//EN" "http://www.w3.org/Graphics/SVG/1.1/DTD/svg11.dtd">
<svg width="100%" height="100%" viewBox="0 0 735 250" version="1.1" xmlns="http://www.w3.org/2000/svg" xmlns:xlink="http://www.w3.org/1999/xlink" xml:space="preserve" xmlns:serif="http://www.serif.com/" style="fill-rule:evenodd;clip-rule:evenodd;stroke-linejoin:round;stroke-miterlimit:1.41421;">
    <rect id="Artboard1" x="0" y="0" width="734.117" height="250" style="fill:none;"/>
    <g id="Artboard11" serif:id="Artboard1">
        <g id="Layer-1" serif:id="Layer 1" transform="matrix(1.09003,0,0,1.09003,-177.954,-8.78734)">
            <g transform="matrix(1,0,0,1,200.382,148.675)">
                <path d="M0,-11.159L0,-10.136C2.25,-10.508 8.5,-11.542 8.5,2.638L8.5,69.685C8.5,71.71 7.5,73.8 6,74.199L-8.75,78.127C-10.125,78.493 -11.25,76.927 -11.25,74.647L-11.25,4.785L-17.375,5.891L-17.375,76.248C-17.375,78.545 -18.5,80.724 -19.875,81.09L-34.625,85.018C-36,85.384 -37.125,83.762 -37.125,81.413L-37.125,-89.404C-37.125,-91.753 -36,-93.747 -34.625,-93.836L-19.875,-94.786C-18.5,-94.875 -17.375,-93.069 -17.375,-90.772L-17.375,-21.041L-11.25,-21.957L-11.25,-90.989C-11.25,-93.27 -10.125,-95.208 -8.75,-95.504L6,-96.455C7.375,-96.543 8.5,-94.793 8.5,-92.565L8.5,-26.733C8.5,-12.555 2.25,-11.528 0,-11.159" style="fill:white;fill-rule:nonzero;"/>
            </g>
            <g transform="matrix(1,0,0,1,236.255,136.905)">
                <path d="M0,-5.083L6,-6.069L6,-61.902L0,-61.33L0,-5.083ZM17.5,-87.739C19.75,-87.884 25.875,-88.089 25.875,-75.755L25.875,67.326C25.875,69.414 24.75,71.422 23.375,71.787L8.5,75.749C7.125,76.115 6,74.664 6,72.524L6,18.831L0,20.002L0,74.093C0,76.249 -1.125,78.313 -2.5,78.679L-17.375,82.64C-18.75,83.006 -19.875,81.499 -19.875,79.29L-19.875,-71.277C-19.875,-85.129 -13.5,-85.741 -11.25,-85.886L17.5,-87.739Z" style="fill:white;fill-rule:nonzero;"/>
            </g>
            <g transform="matrix(1,0,0,1,302.629,88.4046)">
                <path d="M0,71.03L0,105.236C0,107.217 -1.125,109.136 -2.5,109.503L-17.375,113.465C-18.75,113.831 -19.875,112.467 -19.875,110.434L-19.875,75.32L-24.125,76.238C-26.375,76.723 -32.75,77.912 -32.75,64.946L-32.75,-36.52C-32.75,-38.587 -31.625,-40.351 -30.25,-40.439L-15.375,-41.398C-14,-41.487 -12.875,-39.911 -12.875,-37.897L-12.875,50.186L-6.875,49.077L-6.875,-37.949C-6.875,-39.948 -5.75,-41.656 -4.375,-41.745L10.5,-42.711C11.875,-42.801 13,-41.282 13.125,-39.345L13.125,55.816C13.125,68.02 6.75,69.573 4.5,70.059L0,71.03Z" style="fill:white;fill-rule:nonzero;"/>
            </g>
            <g transform="matrix(1,0,0,1,343.128,119.1)">
                <path d="M0,-4.851L6,-5.837L6,-54.3L0,-53.727L0,-4.851ZM17.5,-76.824C19.75,-76.969 25.875,-77.2 25.875,-66.535L25.875,57.184C25.875,58.989 24.75,60.765 23.375,61.131L8.5,65.092C7.125,65.459 6,64.239 6,62.381L6,15.776L0,16.948L0,63.951C0,65.824 -1.125,67.656 -2.5,68.022L-17.375,71.984C-18.75,72.349 -19.875,71.074 -19.875,69.148L-19.875,-62.159C-19.875,-74.239 -13.5,-74.826 -11.25,-74.971L17.5,-76.824Z" style="fill:white;fill-rule:nonzero;"/>
            </g>
            <g transform="matrix(1,0,0,1,413.877,113.107)">
                <path d="M0,-10.645L0,-9.878C2.25,-10.25 8.5,-11.284 8.5,-0.696L8.5,49.37C8.5,50.883 7.5,52.51 6,52.909L-8.75,56.838C-10.125,57.204 -11.25,56.1 -11.25,54.384L-11.25,1.811L-17.375,2.916L-17.375,55.985C-17.375,57.718 -18.5,59.435 -19.875,59.801L-34.625,63.729C-36,64.095 -37.125,62.935 -37.125,61.15L-37.125,-68.626C-37.125,-70.411 -36,-71.943 -34.625,-72.032L-19.875,-72.983C-18.5,-73.071 -17.375,-71.727 -17.375,-69.995L-17.375,-17.398L-11.25,-18.314L-11.25,-70.263C-11.25,-71.979 -10.125,-73.456 -8.75,-73.7L6,-74.651C7.375,-74.74 8.5,-73.451 8.5,-71.787L8.5,-22.628C8.5,-12.041 2.25,-11.014 0,-10.645" style="fill:white;fill-rule:nonzero;"/>
            </g>
            <g transform="matrix(1,0,0,1,432.375,84.1039)">
                <path d="M0,24.253C-1.375,24.498 -2.5,23.354 -2.5,21.71L-2.5,8.409C-2.5,6.765 -1.375,5.253 0,5.05L34.5,-0.042C35.875,-0.245 37,0.849 37,2.388L37,14.845C37,16.385 35.875,17.845 34.5,18.091L0,24.253Z" style="fill:white;fill-rule:nonzero;"/>
            </g>
            <g transform="matrix(1,0,0,1,502.749,132.516)">
                <path d="M0,-82.381L-6,-81.808L-6,-4.178L0,-5.59L0,-82.381ZM-25.875,-88.062C-25.875,-97.457 -19.75,-98.129 -17.375,-98.281L11.375,-100.135C13.625,-100.28 20,-100.564 20,-91.791L20,-2.795C20,5.977 13.625,7.803 11.375,8.402L-17.25,16.025C-19.5,16.624 -25.875,18.183 -25.875,8.651L-25.875,-88.062Z" style="fill:white;fill-rule:nonzero;"/>
            </g>
            <g transform="matrix(1,0,0,1,532.747,69.2897)">
                <path d="M0,21.14C-1.375,21.386 -2.5,20.458 -2.5,19.08L-2.5,7.925C-2.5,6.546 -1.375,5.252 0,5.049L34.5,-0.044C35.875,-0.246 37,0.63 37,1.904L37,12.215C37,13.489 35.875,14.732 34.5,14.978L0,21.14Z" style="fill:white;fill-rule:nonzero;"/>
            </g>
            <g transform="matrix(1,0,0,1,597.121,83.3272)">
                <path d="M0,-17.398L6,-18.298L6,-42.774L0,-42.202L0,-17.398ZM26.125,-21.832C26.125,-14.623 19.625,-13.546 17.375,-13.173L17.375,-12.648C19.625,-13.023 25.875,-14.066 25.875,-6.853L25.875,26.536C25.875,27.669 24.75,28.896 23.375,29.262L8.5,33.224C7.125,33.59 6,32.919 6,31.733L6,-4.497L0,-3.412L0,33.302C0,34.504 -1.125,35.787 -2.5,36.153L-17.375,40.114C-18.75,40.48 -19.875,39.754 -19.875,38.499L-19.875,-52.735C-19.875,-53.989 -18.75,-55.088 -17.375,-55.177L17.5,-57.425C19.75,-57.57 26.125,-57.878 26.125,-50.772L26.125,-21.832Z" style="fill:white;fill-rule:nonzero;"/>
            </g>
            <g transform="matrix(1,0,0,1,650.62,67.8755)">
                <path d="M0,-4.187L6,-5.174L6,-32.43L0,-31.857L0,-4.187ZM17.5,-45.422C19.75,-45.567 25.875,-45.872 25.875,-40.009L25.875,27.997C25.875,28.989 24.75,30.1 23.375,30.466L8.5,34.428C7.125,34.794 6,34.239 6,33.194L6,6.982L0,8.154L0,34.763C0,35.824 -1.125,36.991 -2.5,37.357L-17.375,41.318C-18.75,41.685 -19.875,41.074 -19.875,39.96L-19.875,-35.93C-19.875,-42.912 -13.5,-43.424 -11.25,-43.569L17.5,-45.422Z" style="fill:white;fill-rule:nonzero;"/>
            </g>
            <g transform="matrix(1,0,0,1,710.619,92.3954)">
                <path d="M0,-72.682C8.75,-73.246 8.75,-69.251 8.75,-67.813L9.375,-67.864C9.375,-69.299 9.375,-73.286 18.125,-73.85L36.375,-75.027C38.625,-75.172 45.25,-75.599 45.25,-70.62L45.25,-17.28C45.25,-16.498 44.125,-15.558 42.75,-15.192L28,-11.264C26.625,-10.898 25.5,-11.281 25.5,-12.116L25.5,-64.539L19.375,-63.954L19.375,-10.514C19.375,-9.663 18.25,-8.667 16.875,-8.301L2,-4.34C0.625,-3.974 -0.5,-4.413 -0.5,-5.316L-0.5,-62.057L-6.5,-61.484L-6.5,-3.747C-6.5,-2.828 -7.625,-1.776 -9,-1.41L-23.875,2.551C-25.25,2.917 -26.375,2.422 -26.375,1.45L-26.375,-64.799C-26.375,-70.982 -19.875,-71.401 -17.625,-71.546L0,-72.682Z" style="fill:white;fill-rule:nonzero;"/>
            </g>
            <g transform="matrix(1,0,0,1,783.243,45.7813)">
                <path d="M0,-3.9L6,-4.886L6,-22.997L0,-22.424L0,-3.9ZM17.5,-31.878C19.75,-32.023 25.875,-32.359 25.875,-28.568L25.875,15.409C25.875,16.05 24.75,16.875 23.375,17.241L8.5,21.203C7.125,21.569 6,21.3 6,20.606L6,3.19L0,4.362L0,22.175C0,22.885 -1.125,23.766 -2.5,24.132L-17.375,28.093C-18.75,28.459 -19.875,28.135 -19.875,27.373L-19.875,-24.616C-19.875,-29.399 -13.5,-29.879 -11.25,-30.025L17.5,-31.878Z" style="fill:white;fill-rule:nonzero;"/>
            </g>
            <g transform="matrix(1,0,0,1,834.242,24.3478)">
                <path d="M0,22.952C1.375,22.639 2.5,22.848 2.5,23.416L2.5,29.619C2.5,30.187 1.375,30.952 0,31.318L-14.875,35.28C-16.25,35.645 -17.375,35.437 -17.375,34.816L-17.375,28.04C-17.375,27.419 -16.25,26.655 -14.875,26.342L0,22.952ZM0,-12.604C1.375,-12.693 2.5,-12.3 2.5,-11.732L2.5,17.73C2.5,18.299 1.375,19.001 0,19.292L-14.875,22.431C-16.25,22.721 -17.375,22.451 -17.375,21.829L-17.375,-10.355C-17.375,-10.976 -16.25,-11.556 -14.875,-11.645L0,-12.604Z" style="fill:white;fill-rule:nonzero;"/>
            </g>
        </g>
    </g>
</svg>
