<?xml version="1.0" encoding="UTF-8" standalone="no"?>
<!DOCTYPE svg PUBLIC "-//W3C//DTD SVG 1.1//EN" "http://www.w3.org/Graphics/SVG/1.1/DTD/svg11.dtd">
<svg width="100%" height="100%" viewBox="0 0 735 250" version="1.1" xmlns="http://www.w3.org/2000/svg" xmlns:xlink="http://www.w3.org/1999/xlink" xml:space="preserve" xmlns:serif="http://www.serif.com/" style="fill-rule:evenodd;clip-rule:evenodd;stroke-linecap:round;stroke-linejoin:round;stroke-miterlimit:1.5;">
    <g transform="matrix(2.16577,0,0,2.0704,-59.3053,-151.556)">
        <path d="M67.249,103.002C62.196,100.856 57.179,99.783 52.195,99.783C42.09,99.783 37.038,103.521 37.038,110.996C37.038,114.249 38.18,117.277 40.464,120.08C42.748,122.883 45.516,125.374 48.769,127.555C52.022,129.735 55.275,131.967 58.528,134.251C61.781,136.535 64.55,139.269 66.834,142.452C69.118,145.636 70.26,149.097 70.26,152.834C70.26,159.132 68.149,163.891 63.927,167.109C59.705,170.327 53.874,171.936 46.433,171.936C38.993,171.936 32.643,170.033 27.383,166.227L29.875,162.489C34.858,165.742 40.326,167.368 46.278,167.368C52.23,167.368 56.798,166.175 59.982,163.787C63.165,161.399 64.757,157.956 64.757,153.457C64.757,150.342 63.615,147.384 61.331,144.581C59.047,141.778 56.279,139.251 53.026,137.002C49.773,134.753 46.52,132.451 43.267,130.098C40.014,127.745 37.246,124.942 34.962,121.689C32.678,118.436 31.536,114.941 31.536,111.203C31.536,106.289 33.352,102.396 36.986,99.524C40.62,96.652 45.534,95.215 51.728,95.215C57.923,95.215 63.684,96.461 69.014,98.953L67.249,103.002Z" style="fill:white;fill-rule:nonzero;"/>
        <path d="M94.034,147.332L84.379,170.691L79.499,170.691L107.738,102.898L110.541,102.898L138.987,170.691L133.692,170.691L123.933,147.332L94.034,147.332ZM108.88,110.58C107.841,113.695 106.907,116.29 106.077,118.367L95.695,143.283L122.272,143.283L111.994,118.471C110.402,114.595 109.364,111.965 108.88,110.58Z" style="fill:white;fill-rule:nonzero;"/>
        <rect x="152.691" y="103.313" width="4.776" height="67.377" style="fill:white;fill-rule:nonzero;"/>
        <path d="M182.382,170.691L182.382,103.313L187.158,103.313L187.158,166.33L218.095,166.33L218.095,170.691L182.382,170.691Z" style="fill:white;fill-rule:nonzero;"/>
        <path d="M257.857,171.729C248.237,171.729 240.174,168.372 233.668,161.659C227.162,154.945 223.909,146.726 223.909,137.002C223.909,127.278 227.162,119.059 233.668,112.345C240.174,105.632 248.237,102.275 257.857,102.275C267.478,102.275 275.541,105.632 282.047,112.345C288.553,119.059 291.806,127.278 291.806,137.002C291.806,146.726 288.553,154.945 282.047,161.659C275.541,168.372 267.478,171.729 257.857,171.729ZM257.909,106.532C249.569,106.532 242.648,109.473 237.146,115.356C231.644,121.239 228.892,128.454 228.892,137.002C228.892,145.55 231.644,152.748 237.146,158.596C242.648,164.444 249.569,167.368 257.909,167.368C266.249,167.368 273.153,164.444 278.621,158.596C284.089,152.748 286.823,145.55 286.823,137.002C286.823,128.454 284.089,121.239 278.621,115.356C273.153,109.473 266.249,106.532 257.909,106.532Z" style="fill:white;fill-rule:nonzero;"/>
        <path d="M312.569,170.691L312.569,103.625C318.521,103.14 323.574,102.898 327.727,102.898C334.094,102.898 339.354,104.542 343.507,107.829C347.659,111.117 349.736,115.806 349.736,121.897C349.736,125.98 348.559,129.752 346.206,133.213C343.853,136.673 341.188,139.476 338.212,141.622C346.448,152.557 351.535,159.098 353.473,161.243C357.418,165.327 361.709,167.645 366.347,168.199L366.243,171.417C362.367,171.348 359.218,170.777 356.795,169.704C354.373,168.632 351.968,166.815 349.58,164.254C347.192,161.693 341.95,154.807 333.852,143.594C328.246,143.594 322.743,143.421 317.345,143.075L317.345,170.691L312.569,170.691ZM331.256,139.649C333.956,139.649 336.862,137.85 339.977,134.251C343.092,130.652 344.649,126.464 344.649,121.689C344.649,116.913 343.022,113.28 339.769,110.788C336.516,108.296 332.295,107.051 327.104,107.051C324.335,107.051 321.082,107.189 317.345,107.466L317.345,139.13C322.328,139.476 326.965,139.649 331.256,139.649Z" style="fill:white;fill-rule:nonzero;"/>
    </g>
    <g id="SailorIcon" transform="matrix(0.88599,0,0,0.811703,373.156,153.8)">
        <g transform="matrix(1,0,0,1,-100,-112.5)">
            <g id="Layer1" transform="matrix(0.981588,0,0,0.981588,2.00729,4.03061)">
                <g transform="matrix(1.05493,0,0,1.05493,-7.27061,32.2192)">
                    <path d="M178.411,147.783C178.411,147.783 189.168,164.584 188.307,165.085C187.494,165.557 183.142,166.344 181.352,164.016L173.261,153.392C172.157,151.722 173.893,148.325 173.893,148.325L178.411,147.783Z" style="fill:white;"/>
                </g>
                <g transform="matrix(1.05493,0,0,1.05493,-5.98807,-7.52261)">
                    <path d="M169.105,185.997C169.103,186.116 169.02,191.637 168.833,191.718C164.201,193.711 133.456,196.657 101.324,197.031L102.071,218.823C102.134,220.653 101.426,220.488 100,220.523C91.851,220.72 91.241,198.71 91.208,197.161L91.207,197.059C68.998,196.928 47.362,195.39 34.444,191.29C32.572,190.696 30.93,186.096 30.895,185.997L169.105,185.997Z" style="fill:white;"/>
                </g>
                <g transform="matrix(1,0,0,1,0,0.114293)">
                    <path d="M142.517,160.773L67.762,162.311L67.008,6.614L142.517,160.773Z" style="fill:white;fill-opacity:0.129412;stroke:white;stroke-width:0.58px;"/>
                </g>
            </g>
        </g>
    </g>
</svg>
